<svg width="31" height="5" viewBox="0 0 31 5" fill="none" xmlns="http://www.w3.org/2000/svg">
<path d="M22.6306 4.33971H21.9541C21.8262 4.33971 21.7985 4.29224 21.7985 4.17488V0.137186C21.7985 0.0316943 21.8355 0.00268555 21.9383 0.00268555H22.4012C22.5963 0.00268555 22.7559 0.0844412 22.8746 0.245316L24.8209 2.85756V0.129275C24.8209 0.0330133 24.8393 0.00268555 24.9646 0.00268555H25.6371C25.7426 0.00268555 25.7729 0.0145522 25.7729 0.129275V4.26455C25.7729 4.32916 25.7479 4.33971 25.6806 4.33971H25.1993C25.1888 4.33971 25.1795 4.33971 25.1703 4.33971C24.8697 4.33971 24.7048 4.13005 24.6139 4.01533L22.7493 1.59957V4.21444C22.7598 4.29488 22.7348 4.33971 22.6306 4.33971Z" fill="#DF0011"/>
<path d="M19.1731 1.08529L17.654 4.27642C17.6329 4.32125 17.5868 4.33971 17.5367 4.33971H14.9218C14.0502 4.33971 13.8669 3.78589 13.8669 3.32172V0.00268555H14.819V3.36524C14.819 3.44436 14.819 3.49314 15.0721 3.49314H16.9868L18.523 0.193891C18.5903 0.0396093 18.6259 0.00268555 18.8 0.00268555H19.5331C19.7283 0.00268555 19.7678 0.0448842 19.8285 0.185979L21.7273 4.33971H20.7964C20.7463 4.33971 20.7001 4.31994 20.6777 4.27642L20.2518 3.37842H18.4584L18.8778 2.50416H19.839L19.1705 1.08661L19.1731 1.08529Z" fill="#DF0011"/>
<path d="M12.4691 2.60303C12.5904 2.58457 12.7566 2.56348 12.8779 2.48963C13.1957 2.29711 13.4014 1.92393 13.4014 1.32395C13.4014 0.771432 13.1772 0.323093 12.866 0.158262C12.6392 0.0382652 12.2278 0.00529871 11.6331 0.00134277H9.4481C9.36371 0.00134277 9.3136 0.0461785 9.3136 0.155626V4.25134C9.3136 4.30013 9.35184 4.33837 9.39931 4.33837H10.1813C10.2287 4.33837 10.267 4.29881 10.267 4.25134V2.77314C10.267 2.68347 10.2999 2.64523 10.3804 2.64523H11.3997L12.5232 4.33837H13.6216L12.4691 2.60303ZM12.1144 1.79998H10.267V0.849236H12.0696C12.3742 0.849236 12.4375 1.02989 12.4375 1.32527C12.4375 1.62064 12.3623 1.8013 12.1131 1.8013" fill="#DF0011"/>
<path d="M7.28289 0.00524902H5.63062C4.92383 0.00524902 4.03242 0.440404 4.03242 2.12036C4.03242 3.80032 4.71285 4.33832 5.44338 4.33832H7.47014C8.20199 4.33832 8.88109 3.80163 8.88109 2.12036C8.88109 0.439085 7.98969 0.00524902 7.28289 0.00524902ZM7.15894 3.50098H5.75326C5.26404 3.50098 4.99504 3.00517 4.99504 2.17179C4.99504 1.3384 5.17569 0.847866 5.75326 0.847866H7.15894C7.73783 0.847866 7.91847 1.3384 7.91847 2.17179C7.91847 3.00517 7.64948 3.50098 7.15894 3.50098Z" fill="#DF0011"/>
<path d="M0.950747 2.76273V4.25281C0.950747 4.30028 0.909866 4.33983 0.861076 4.33983H0.089671C0.0395625 4.33983 0 4.30028 0 4.25281V0.113573C0 0.0529157 0.0514306 0.00280762 0.114726 0.00280762H3.63024C3.69353 0.00280762 3.74496 0.0529157 3.74496 0.113573V0.739931C3.74496 0.800588 3.69353 0.850697 3.63024 0.850697H0.952063V1.81727H3.4575C3.57617 1.81727 3.60782 1.81726 3.60782 1.93858V2.56362C3.60782 2.64802 3.55771 2.66252 3.49705 2.66252H1.05096C0.987667 2.66252 0.953383 2.68362 0.953383 2.76273" fill="#DF0011"/>
<path d="M28.7056 0.00131591H26.5285C26.4125 0.00131591 26.3848 0.0514274 26.3848 0.127909V4.23022C26.3848 4.32516 26.4375 4.33834 26.4824 4.33834H28.8915C29.6234 4.33834 30.3038 3.80166 30.3038 2.12038C30.3038 0.439108 29.4111 0 28.7056 0M28.583 3.49177H27.3395V0.850525H28.583C29.1619 0.850525 29.3412 1.30546 29.3412 2.17181C29.3412 3.03816 29.0722 3.49177 28.583 3.49177Z" fill="#DF0011"/>
</svg>
