<svg width="190" height="28" viewBox="0 0 190 28" fill="none" xmlns="http://www.w3.org/2000/svg">
<path d="M141.399 27.1149H137.172C136.373 27.1149 136.2 26.8183 136.2 26.085V0.856979C136.2 0.197852 136.431 0.0166016 137.074 0.0166016H139.965C141.185 0.0166016 142.182 0.527421 142.923 1.53259L155.084 17.8542V0.807546C155.084 0.206093 155.2 0.0166016 155.982 0.0166016H160.184C160.843 0.0166016 161.033 0.0907462 161.033 0.807546V26.6453C161.033 27.049 160.876 27.1149 160.456 27.1149H157.449C157.383 27.1149 157.325 27.1149 157.268 27.1149C155.389 27.1149 154.359 25.8049 153.791 25.0881L142.141 9.99414V26.3322C142.206 26.8348 142.05 27.1149 141.399 27.1149Z" fill="white"/>
<path d="M119.788 6.78088L110.297 26.7195C110.165 26.9996 109.876 27.1149 109.563 27.1149H93.2252C87.7792 27.1149 86.6339 23.6545 86.6339 20.7544V0.0166016H92.5826V21.0263C92.5826 21.5206 92.5826 21.8254 94.1645 21.8254H106.128L115.726 1.21128C116.146 0.247306 116.369 0.0166016 117.456 0.0166016H122.037C123.257 0.0166016 123.504 0.280264 123.883 1.16185L135.747 27.1149H129.93C129.617 27.1149 129.329 26.9914 129.189 26.7195L126.528 21.1087H115.322L117.942 15.6461H123.949L119.772 6.78913L119.788 6.78088Z" fill="white"/>
<path d="M77.9087 16.264C78.6667 16.1487 79.7049 16.0169 80.4629 15.5555C82.4485 14.3526 83.7338 12.0209 83.7338 8.2721C83.7338 4.81992 82.3331 2.01864 80.3887 0.988753C78.9716 0.238997 76.401 0.033018 72.6852 0.00830078H59.033C58.5057 0.00830078 58.1926 0.288441 58.1926 0.972284V26.5629C58.1926 26.8677 58.4316 27.1066 58.7282 27.1066H63.6139C63.9105 27.1066 64.1495 26.8595 64.1495 26.5629V17.3269C64.1495 16.7666 64.3555 16.5277 64.8581 16.5277H71.2269L78.2466 27.1066H85.1097L77.9087 16.264ZM75.6842 11.2464H64.1412V5.30605H75.4041C77.3073 5.30605 77.7028 6.43479 77.7028 8.28034C77.7028 10.1259 77.2331 11.2547 75.676 11.2547" fill="white"/>
<path d="M45.4962 0.032959H35.1726C30.7565 0.032959 25.1869 2.75186 25.1869 13.2484C25.1869 23.745 29.4382 27.1066 34.0027 27.1066H46.6661C51.2388 27.1066 55.482 23.7533 55.482 13.2484C55.482 2.74362 49.9123 0.032959 45.4962 0.032959ZM44.7217 21.8748H35.9389C32.8822 21.8748 31.2014 18.7769 31.2014 13.5698C31.2014 8.36269 32.3301 5.29774 35.9389 5.29774H44.7217C48.3387 5.29774 49.4674 8.36269 49.4674 13.5698C49.4674 18.7769 47.7867 21.8748 44.7217 21.8748Z" fill="white"/>
<path d="M5.94038 17.261V26.5712C5.94038 26.8678 5.68496 27.1149 5.38012 27.1149H0.560258C0.247173 27.1149 0 26.8678 0 26.5712V0.708681C0 0.329684 0.321326 0.0166016 0.716802 0.0166016H22.6822C23.0777 0.0166016 23.399 0.329684 23.399 0.708681V4.62224C23.399 5.00124 23.0777 5.31432 22.6822 5.31432H5.94862V11.3536H21.6029C22.3444 11.3536 22.5421 11.3536 22.5421 12.1116V16.0169C22.5421 16.5442 22.229 16.6348 21.85 16.6348H6.56655C6.17107 16.6348 5.95686 16.7666 5.95686 17.261" fill="white"/>
<path d="M179.357 0.00822198H165.754C165.029 0.00822198 164.856 0.321325 164.856 0.799192V26.431C164.856 27.0242 165.185 27.1065 165.465 27.1065H180.518C185.091 27.1065 189.342 23.7533 189.342 13.2484C189.342 2.7436 183.764 0 179.357 0M178.582 21.8171H170.813V5.31419H178.582C182.199 5.31419 183.32 8.15669 183.32 13.5698C183.32 18.9828 181.639 21.8171 178.582 21.8171Z" fill="white"/>
</svg>
