<svg width="13" height="5" viewBox="0 0 13 5" fill="none" xmlns="http://www.w3.org/2000/svg">
<path d="M2.9984 0.000854492L2.5488 1.65H4.57291L5.17268 0.000854492H6.84714L5.49789 4.249H3.79854L4.29079 2.66428C4.31256 2.62385 4.23793 2.54965 4.22326 2.54965H2.27424L1.69935 4.249H0L1.2995 0.000854492H2.99885H2.9984Z" fill="#231F20"/>
<path d="M7.54644 4.29879C7.50734 4.26458 7.66284 4.0691 7.69749 4.02512C8.46164 3.05527 9.39728 2.16494 10.137 1.16711C10.3254 0.951189 10.0282 0.700174 9.82023 0.700174H7.24611C7.37006 0.542457 7.38383 0.0346533 7.57043 0H11.7204C12.1171 0.0462045 12.2411 0.437609 12.0167 0.747712L9.0703 4.29879H7.54599H7.54644Z" fill="#231F20"/>
</svg>
