<svg width="190" height="68" viewBox="0 0 190 68" fill="none" xmlns="http://www.w3.org/2000/svg">
<path d="M46.9619 0.0136719L39.9201 25.8431H71.6223L81.0161 0.0136719H107.242L86.1096 66.5494H59.4939L67.2038 41.729C67.5447 41.0958 66.3757 39.9337 66.1461 39.9337H35.6198L26.6157 66.5494H0L20.3532 0.0136719H46.9689H46.9619Z" fill="white"/>
<path d="M118.195 67.329C117.582 66.7932 120.018 63.7316 120.56 63.0427C132.529 47.8526 147.183 33.908 158.769 18.2796C161.719 14.8978 157.064 10.9663 153.807 10.9663H113.491C115.432 8.49613 115.648 0.542751 118.57 0H183.568C189.782 0.723669 191.723 6.85397 188.21 11.7109L142.062 67.329H118.188H118.195Z" fill="white"/>
</svg>
