<svg width="13" height="5" viewBox="0 0 13 5" fill="none" xmlns="http://www.w3.org/2000/svg">
<path d="M12.1291 0.000488281L11.9007 0.763307L8.78639 0.767748L8.52515 1.77136H10.6434C10.8909 1.77136 11.412 2.04459 11.5124 2.29339C11.7812 2.9598 11.2432 3.66041 10.6777 3.95541C10.3813 4.11002 9.70114 4.30061 9.3786 4.30061H6.05899L6.29046 3.53913C7.14702 3.48848 8.09287 3.61599 8.93833 3.54402C9.41192 3.50359 9.90818 3.27301 9.75846 2.719C9.73669 2.67502 9.53321 2.53018 9.50522 2.53018H6.6281L7.41847 0.000932989H12.1291V0.000488281Z" fill="#231F20"/>
<path d="M1.94903 3.41469H5.30018C5.2833 3.62572 5.16157 4.26147 4.95321 4.30057L0.0781922 4.24237L0 3.96914L1.19021 0H2.80248C2.84735 0 2.92687 0.13817 2.88645 0.205255L1.94858 3.41469H1.94903Z" fill="#231F20"/>
</svg>
