<svg width="190" height="68" viewBox="0 0 190 68" fill="none" xmlns="http://www.w3.org/2000/svg">
<path d="M189.97 0.00683594L186.393 11.9543L137.615 12.0239L133.524 27.7428H166.701C170.577 27.7428 178.739 32.0222 180.312 35.9189C184.522 46.3564 176.095 57.3297 167.237 61.9501C162.596 64.3716 151.943 67.3567 146.891 67.3567H94.8979L98.5232 55.4301C111.939 54.6369 126.753 56.6339 139.995 55.5067C147.413 54.8735 155.185 51.2621 152.84 42.585C152.499 41.8961 149.312 39.6277 148.874 39.6277H103.812L116.191 0.0138011H189.97V0.00683594Z" fill="white"/>
<path d="M30.5263 53.4819H83.0131C82.7487 56.7871 80.8421 66.7445 77.5787 67.3569L1.22467 66.4453L0 62.1659L18.6414 0H43.8933C44.5961 0 45.8416 2.16405 45.2084 3.21477L30.5193 53.4819H30.5263Z" fill="white"/>
</svg>
