<svg width="57" height="47" viewBox="0 0 57 47" fill="none" xmlns="http://www.w3.org/2000/svg">
<path d="M43.2274 5.01984C43.2555 6.03063 42.5718 7.00044 41.6135 7.31388C41.1016 7.48067 39.9765 7.31532 40.0678 8.1435C40.1634 9.01698 41.6235 8.64818 42.1656 8.44473C43.543 7.92783 44.5092 6.50583 44.4877 5.02487C47.2282 4.65319 50.2397 6.49432 51.1448 9.11763C51.3037 9.57845 51.3993 10.1191 51.4963 10.5993C53.6035 21.0278 54.6646 31.8668 56.725 42.3277C56.9263 44.8266 55.359 46.8008 52.8328 46.9985L20.4035 46.9999C17.8211 46.8317 15.627 45.1171 14.7593 42.7051C12.852 31.3737 10.8139 20.0185 9.26465 8.64099C9.34876 6.65464 11.3222 4.92422 13.2675 4.92422H21.7586C22.044 4.92422 21.7773 5.7826 21.7147 5.94148C21.4631 6.57987 20.9017 7.0637 20.2611 7.28584C19.7277 7.4706 18.7622 7.32467 18.7622 8.06011C18.7622 9.08168 20.4689 8.58779 21.0332 8.34839C22.3424 7.7934 23.1188 6.39224 23.2 5.01481L23.4905 4.91919L32.4265 4.96592C32.8298 5.97815 31.6249 7.19095 30.6896 7.39009C30.277 7.47779 29.6379 7.30166 29.4704 7.81352C29.1066 8.9264 30.5401 8.70282 31.167 8.5425C32.5832 8.18017 33.4172 7.09677 33.7464 5.71862C33.8047 5.47563 33.6889 5.18016 33.9161 5.01984H43.2274ZM14.5479 11.5123C13.0274 11.7043 12.1554 12.9084 12.3509 14.4268C14.1425 23.3729 14.9965 32.695 16.8168 41.611C17.1892 43.4348 18.0886 44.4895 20.0174 44.6821H51.771C52.8925 44.685 54.0449 43.9992 54.2814 42.8511C54.4791 41.8913 53.8918 39.2199 53.7171 38.0969C52.4518 29.9811 50.9723 21.8898 49.6638 13.7812C49.2095 12.3793 48.0067 11.5964 46.5596 11.4821L14.5479 11.513V11.5123Z" fill="white"/>
<path d="M3.71389 46.9941C1.75846 46.7957 0.240116 45.324 0 43.3744C1.50396 32.1514 3.60031 20.9767 5.39039 9.78325C5.70887 8.35334 6.61326 7.04851 7.78365 6.19373C8.20277 5.88747 8.8692 5.42665 9.35878 5.45325C8.24734 6.6186 7.89076 8.21315 8.0101 9.79403L13.3444 42.1882C13.7427 44.2025 14.9735 45.7079 16.4997 46.9934H3.71461L3.71389 46.9941Z" fill="white"/>
<path d="M38.9606 0.0289896C41.2273 -0.234132 43.7219 1.45603 44.2468 3.67171C44.1418 3.81262 43.1871 3.81118 43.0332 3.71844C42.9764 3.68393 42.502 2.82124 42.3114 2.60628C41.2331 1.39133 38.9915 0.708361 37.6745 1.92763C37.1087 2.451 37.1827 3.08795 36.8599 3.71844L35.7916 3.72347C35.5846 3.57825 35.7924 2.76085 35.865 2.5308C36.2855 1.19722 37.5796 0.190025 38.9606 0.0297081V0.0289896Z" fill="white"/>
<path d="M33.5782 3.76509L32.2885 3.67811C31.2216 0.940494 26.6802 0.0648593 26.2511 3.72412L25.0864 3.76653C25.2604 -1.64687 32.64 -0.743195 33.5782 3.76581V3.76509Z" fill="white"/>
<path d="M17.6356 0.0292235C19.9937 -0.244681 22.2151 1.44188 22.9642 3.61803C22.9247 3.81788 21.9541 3.80998 21.773 3.75031C21.6601 3.71292 21.1669 2.81213 20.9872 2.60652C19.9318 1.39947 17.6349 0.695654 16.3502 1.92787C15.8103 2.4462 15.8211 3.07956 15.5379 3.72083L14.4667 3.72299C14.1367 3.49078 14.6852 2.12125 14.8757 1.80421C15.4595 0.832966 16.5062 0.160066 17.6356 0.028505V0.0292235Z" fill="white"/>
<path d="M14.348 12.856L47.1864 12.8811C48.4013 13.3268 48.4876 14.2161 48.6975 15.3261C50.3632 24.1184 51.3942 33.048 53.0563 41.8439C53.1584 42.4923 53.0038 43.0912 52.3503 43.332C41.594 43.5484 30.7909 43.3579 20.0173 43.4276C18.7074 43.2501 18.3228 42.6203 18.0712 41.4176C16.22 32.5491 15.3918 23.2298 13.6168 14.3189C13.5112 13.6863 13.724 13.0882 14.348 12.856ZM18.5989 15.659C18.0015 15.751 17.5399 16.1076 17.4623 16.7409C17.3739 17.4563 17.8189 20.3283 18.2373 20.8919C18.3789 21.0832 18.6535 21.3183 18.8728 21.4139C19.5514 21.7101 22.2711 21.7244 22.962 21.4685C23.6715 21.2061 23.8714 20.6454 23.8311 19.9286C23.793 19.2571 23.499 17.6274 23.3236 16.9631C23.1388 16.2614 22.5773 15.7417 21.8462 15.6417C21.1862 15.5519 19.2553 15.5576 18.5989 15.6583V15.659ZM29.3092 15.659C28.6291 15.7582 28.1086 16.2262 28.0734 16.9401C28.0497 17.4095 28.4386 19.7963 28.5882 20.2859C28.7276 20.7424 29.1575 21.3168 29.6191 21.4743C30.3013 21.7072 33.2639 21.7302 33.8642 21.3707C34.0447 21.2622 34.3179 20.9415 34.3833 20.7316C34.5666 20.1414 34.1726 17.5001 33.9599 16.8438C33.8269 16.4318 33.4588 15.9818 33.0655 15.8085C32.4789 15.5497 30.0087 15.5562 29.3099 15.6583L29.3092 15.659ZM39.8247 15.6576C39.1993 15.7625 38.76 16.3189 38.7262 16.9509C38.7018 17.416 39.1863 20.1766 39.3776 20.5929C39.581 21.035 40.0742 21.4628 40.571 21.5224C41.2942 21.6094 43.3265 21.6094 44.0498 21.5224C44.8629 21.4247 45.1907 20.6806 45.1562 19.93C45.1288 19.3355 44.6723 16.7697 44.3855 16.3563C44.0994 15.9451 43.663 15.7028 43.1677 15.6439C42.4725 15.5612 40.4904 15.544 39.824 15.6561L39.8247 15.6576ZM42.4272 23.1817C41.6508 23.3592 41.5695 24.8711 41.2525 25.4793C40.2589 25.9236 38.1755 25.4462 38.5221 27.1429C38.6608 27.8215 40.1576 28.6289 40.604 29.209C40.7593 30.0832 40.2733 31.5944 41.1087 32.1781C42.0943 32.8668 43.0268 31.6411 43.9491 31.3542C44.7665 31.5419 46.6019 33.0178 47.269 31.9783C47.7773 31.186 46.8248 29.8553 46.7155 29.0171C47.0807 28.4592 48.1511 27.6526 48.1497 26.971C48.1461 25.5268 46.0196 25.8179 45.0627 25.5217C44.1943 24.7604 43.8974 22.8445 42.4272 23.1802V23.1817ZM19.9468 25.2097C19.6291 25.2672 19.1445 25.6475 19.0504 25.9538C18.8663 26.5512 19.3034 29.0645 19.5004 29.7604C19.6974 30.4563 20.2222 30.9919 20.9857 31.0739C21.6952 31.1501 23.4731 31.1601 24.1726 31.076C25.0756 30.9675 25.4235 30.2162 25.3746 29.3866C25.3358 28.7259 25.0439 26.9617 24.8484 26.3427C24.6701 25.7769 24.1812 25.2809 23.5824 25.1961C22.9476 25.1062 20.5572 25.0997 19.9468 25.2104V25.2097ZM30.5608 25.209C30.003 25.3219 29.6306 25.9603 29.6191 26.4944C29.6068 27.0631 29.9677 29.0473 30.1331 29.6454C30.3754 30.5232 30.8563 30.9934 31.7895 31.0767C32.4969 31.14 34.1957 31.1609 34.8729 31.0645C35.5328 30.9711 36.0828 30.3341 36.0878 29.6756C36.0914 29.158 35.7054 27.1105 35.5601 26.5347C35.4149 25.9588 34.9297 25.291 34.2963 25.1932C33.7377 25.1069 31.0878 25.1026 30.5616 25.209H30.5608ZM21.5867 34.6656C21.0698 34.7597 20.6118 35.2378 20.5493 35.7497C20.4767 36.3392 20.8771 38.6605 21.0619 39.2946C21.2438 39.9194 21.7678 40.4499 22.4307 40.5304C23.0259 40.603 25.6191 40.5994 26.1043 40.4362C26.4559 40.3183 26.8211 39.9603 26.8973 39.5894C27.0188 38.9991 26.6133 36.5189 26.4099 35.8755C26.2064 35.2321 25.7233 34.7468 25.0288 34.6512C24.4084 34.5656 22.1798 34.557 21.586 34.6648L21.5867 34.6656ZM32.2984 34.6663C31.6773 34.7705 31.1964 35.3176 31.1748 35.9546C31.1554 36.5275 31.5422 38.5498 31.7125 39.1616C31.9117 39.8769 32.3603 40.4355 33.1417 40.5311C33.8211 40.6138 35.7463 40.6131 36.4272 40.5311C37.1144 40.4485 37.6507 39.8101 37.6385 39.13C37.6277 38.5175 37.2862 36.5973 37.1216 35.9725C36.957 35.3478 36.4264 34.7446 35.7406 34.6519C35.0857 34.5627 32.9361 34.5592 32.2984 34.6663ZM42.9117 34.6656C42.3014 34.777 41.8981 35.3521 41.8686 35.9438C41.8427 36.4592 42.223 38.7698 42.3862 39.2953C42.6163 40.0387 43.1777 40.4643 43.947 40.5326C44.6989 40.5994 46.4071 40.6188 47.1375 40.5311C47.6271 40.4722 48.1217 40.0775 48.223 39.5901C48.3359 39.0452 47.9578 36.5362 47.778 35.9301C47.5731 35.2392 47.0828 34.7497 46.3553 34.6512C45.7313 34.5663 43.5091 34.5563 42.9124 34.6648L42.9117 34.6656Z" fill="white"/>
<path d="M41.8766 28.8051C41.7587 28.2164 40.5661 27.634 40.2052 27.2171C40.111 27.1078 40.1318 27.0582 40.139 26.9238C40.6746 26.867 41.7199 26.9072 42.1211 26.5406C42.4209 26.2667 42.7214 25.0488 42.8421 24.6074C43.3806 25.0186 43.804 26.3371 44.349 26.6218C44.7925 26.8533 46.6006 26.9202 46.7005 27.0208C46.4446 27.601 45.5359 28.1826 45.4503 28.813C45.3648 29.4435 45.955 30.197 45.9277 30.8792L43.9529 30.0072L41.8759 30.9755C41.7882 30.3386 41.9945 29.3982 41.8759 28.8044L41.8766 28.8051Z" fill="white"/>
<path d="M21.7578 16.8883C22.0497 16.9365 22.0626 17.2543 22.1266 17.4843C22.3703 18.365 22.4077 19.3643 22.5781 20.2658H19.3459C19.105 20.0523 19.0957 19.7122 19.0367 19.4167C18.8757 18.6065 18.783 17.7144 18.7183 16.8883C19.6399 16.9954 20.8786 16.7438 21.7578 16.8883Z" fill="white"/>
<path d="M33.2885 20.2659H30.0562C29.9872 20.2055 29.9153 20.148 29.87 20.066C29.7838 19.9086 29.3503 17.5031 29.3381 17.2112C29.333 17.0998 29.374 16.8884 29.4775 16.8884H32.4689C32.5573 16.8884 32.7478 17.2292 32.7831 17.3464C33.044 18.2127 32.9829 19.3802 33.2892 20.2659H33.2885Z" fill="white"/>
<path d="M25.6659 39.2744H22.53C22.3596 39.1637 22.3308 39.0329 22.2726 38.8567C21.9858 37.994 21.9685 36.8064 21.8068 35.897H24.9427C25.0311 35.897 25.2209 36.2377 25.2568 36.3549C25.507 37.1809 25.4689 38.3988 25.6666 39.2744H25.6659Z" fill="white"/>
<path d="M43.9024 20.2659H40.6702C40.5509 20.1659 40.4963 20.0509 40.4538 19.9035C40.2044 19.0401 40.1483 17.7928 40.0433 16.8884H43.0829C43.1016 16.8884 43.2928 17.0027 43.3216 17.0358C43.635 17.3852 43.7155 19.6706 43.9032 20.2659H43.9024Z" fill="white"/>
<path d="M46.9909 39.2744H43.8551C43.6602 39.1479 43.6365 38.9818 43.579 38.7784C43.336 37.925 43.2677 36.7884 43.1318 35.897H46.2677C46.3562 35.897 46.5459 36.2377 46.5819 36.3549C46.8278 37.1666 46.8249 38.4088 46.9917 39.2744H46.9909Z" fill="white"/>
<path d="M36.3761 39.2744H33.1439C32.898 39.0609 32.898 38.7187 32.8369 38.4232C32.7277 37.8927 32.4559 36.5677 32.4595 36.0947C32.4602 35.9825 32.466 35.9689 32.5652 35.897H35.6529C36.1619 36.8855 36.1533 38.1759 36.3769 39.2744H36.3761Z" fill="white"/>
<path d="M31.6968 29.8185C31.3898 29.7682 31.3445 29.3232 31.2892 29.068C31.2036 28.6747 30.8629 26.8494 30.8823 26.5762C30.8887 26.4878 30.9621 26.3447 31.0217 26.3447H33.9168C34.0778 26.3447 34.2791 26.6409 34.3273 26.8027C34.4322 27.1607 34.8255 29.3002 34.8147 29.6007C34.8104 29.7186 34.7795 29.7495 34.6889 29.8185C33.7809 29.7128 32.5631 29.9608 31.6975 29.8185H31.6968Z" fill="white"/>
<path d="M24.1216 29.8185H20.9857C20.8972 29.8185 20.7067 29.4777 20.6715 29.3606C20.4141 28.5065 20.3882 27.2491 20.2617 26.3447H23.2049C23.4141 26.3447 23.6363 26.7229 23.6924 26.9191C23.9389 27.7825 23.9627 28.9191 24.1216 29.8185Z" fill="white"/>
</svg>
