<svg width="41" height="47" viewBox="0 0 41 47" fill="none" xmlns="http://www.w3.org/2000/svg">
<path d="M34.7337 12.2706C35.4485 12.2474 36.1742 12.4739 36.5704 13.1019C37.1649 14.0452 36.7164 15.3629 36.9138 16.4222C37.9069 17.1119 39.2355 17.4666 39.3495 18.884C39.6993 18.8475 40.5395 19.0192 40.6149 19.4109L40.6011 26.0041C40.5069 26.3159 39.7165 26.4664 39.4205 26.496C39.1699 27.1482 38.9977 27.6085 38.4131 28.0372C38.1033 28.2642 36.932 28.7511 36.8748 29.0476L36.9133 40.4742C37.2996 40.6859 37.3938 40.8768 37.4338 41.308C37.4723 41.7254 37.5098 42.8699 37.1891 43.1398H3.42586C3.10517 42.8699 3.14218 41.7254 3.18115 41.308C3.22111 40.8768 3.31485 40.6859 3.70164 40.4742L3.74012 29.0476C3.67993 28.7373 2.51315 28.2627 2.20184 28.0372C1.61722 27.6139 1.44454 27.1433 1.19441 26.496C0.898892 26.4664 0.108045 26.3154 0.0138139 26.0041L0 19.4109C0.0759766 19.0192 0.915666 18.848 1.26545 18.884C1.37251 17.4508 2.72924 17.143 3.70213 16.4232C3.87579 15.4735 3.54031 14.316 3.88714 13.4226C4.22065 12.5627 4.99768 12.2405 5.88128 12.2706C6.05593 12.1621 6.9642 8.90592 7.20742 8.38C7.54438 7.65181 8.23113 7.21865 9.03481 7.18115L31.7262 7.19398C32.4568 7.27341 32.9862 7.64145 33.3547 8.27344L34.7337 12.2706ZM32.9709 12.2015C33.0059 11.9795 32.924 11.8744 32.6961 11.8789H7.91884L7.67956 11.9583L7.64404 12.2015H32.9704H32.9709ZM6.03175 14.2874C5.07662 14.47 5.44516 15.7951 6.23255 15.6905C7.18522 15.5632 6.93657 14.1148 6.03175 14.2874ZM8.33918 14.2879C7.55721 14.4606 7.70867 15.7241 8.54786 15.6826C9.54691 15.6333 9.36683 14.061 8.33918 14.2879ZM31.9131 14.2879C31.1312 14.4606 31.2826 15.7241 32.1218 15.6826C33.1209 15.6333 32.9408 14.061 31.9131 14.2879ZM34.3034 14.286C33.3143 14.4882 33.852 16.1262 34.7953 15.579C35.5354 15.1493 35.0489 14.1335 34.3034 14.286ZM3.7416 17.1395C3.36419 17.3235 2.7988 17.5786 2.4722 17.8213C2.1456 18.0641 1.85797 18.4578 1.90928 18.8914C2.33307 18.8702 3.02229 19.0098 3.09925 19.4938L3.06472 26.0599C2.89599 26.4092 1.84416 26.424 1.83331 26.5759C2.0785 27.4842 2.9621 27.8404 3.7416 28.2099V17.1395ZM36.8733 17.1395V28.2099C37.6528 27.8404 38.5359 27.4842 38.7816 26.5759C38.7708 26.424 37.7184 26.4092 37.5502 26.0599L37.5157 19.4938C37.5926 19.0098 38.2819 18.8702 38.7057 18.8914C38.757 18.4573 38.4753 18.0685 38.1427 17.8213C38.0455 17.7493 36.9212 17.0852 36.8733 17.1395ZM5.63016 17.7932C5.09537 18.0221 4.83241 18.3349 4.85165 18.9329C4.87829 19.7518 5.03962 20.6542 5.09487 21.4805C5.18022 22.7643 5.14964 24.2927 5.33958 25.5369C5.40223 25.9464 5.75005 26.2266 6.12549 26.3435L34.5496 26.3243C34.8984 26.1926 35.1574 25.973 35.262 25.603L35.7643 18.7701C35.7396 18.258 35.4244 17.9812 34.9848 17.7927H5.63016V17.7932ZM5.86845 31.6506C5.73821 31.6945 5.67999 31.7848 5.65532 31.9155C5.61586 32.1252 5.62918 33.7345 5.69233 33.8647C5.72489 33.9313 5.79692 33.9866 5.86796 34.0078L11.4675 33.9851C11.6945 33.8514 11.6836 32.0625 11.5672 31.8129C11.5332 31.7404 11.4957 31.6747 11.4138 31.6481L5.86796 31.6511L5.86845 31.6506ZM29.2007 31.6476C28.9002 31.7487 28.9555 33.1849 28.9846 33.51C28.9994 33.6768 29.0137 33.9481 29.2007 34.0108L34.8027 33.9846C34.8708 33.9442 34.9226 33.8864 34.9458 33.809C34.9971 33.6339 34.9991 32.1267 34.9596 31.916C34.9349 31.7852 34.8772 31.695 34.7465 31.6511L29.2007 31.6481V31.6476ZM11.6264 35.2979H5.65335V35.6961H11.507L11.616 35.5658L11.6264 35.2974V35.2979ZM34.9616 35.2979H29.068V35.6961H34.9616V35.2979ZM16.9226 40.0766H23.6924C23.9839 39.86 23.9539 38.4707 23.8177 38.2788C23.7684 38.2092 23.6549 38.1609 23.5769 38.1214L17.3172 38.0814C17.0804 38.0735 16.7765 38.1767 16.7252 38.4455C16.6779 38.6952 16.665 39.9986 16.9226 40.0766Z" fill="white"/>
<path d="M39.2627 17.0597L37.5497 16.0246C37.3938 15.0167 37.7165 13.9747 37.2868 13.022C36.896 12.1557 36.0845 11.7669 35.1925 11.5948C34.3415 9.74172 34.3424 6.61336 31.6601 6.54281H8.9544C6.25082 6.61286 6.28387 9.7802 5.39732 11.6278C4.57095 11.7206 3.76234 12.1606 3.37949 12.9145C2.87775 13.9037 3.22162 14.9644 3.06473 16.0241L1.35181 17.0592V1.40994C1.35181 0.916097 2.0647 0.165211 2.56102 0.0709799C14.3981 -0.00598346 26.2805 -0.0479186 38.1107 0.0921941C38.5838 0.195799 39.2617 0.939284 39.2617 1.40994V17.0597H39.2627Z" fill="white"/>
<path d="M30.5017 45.0146H10.1133L10.1878 43.9342L30.3028 43.8997L30.4908 44.0304L30.5017 45.0146Z" fill="white"/>
<path d="M1.35229 28.2896L3.10469 29.3651V39.6387L2.9853 39.7581H1.47169L1.35229 39.6387V28.2896Z" fill="white"/>
<path d="M39.2627 28.2896V39.6387L39.1433 39.7581H37.6296L37.5103 39.6387V29.3651L39.2627 28.2896Z" fill="white"/>
<path d="M4.33912 43.8997H9.03783L9.15722 44.019V46.5677C9.15722 46.767 8.82174 46.9062 8.64117 46.9274C7.87844 47.0182 5.48271 47.029 4.73331 46.9298C4.54485 46.9052 4.21973 46.6486 4.21973 46.4878V44.019L4.33912 43.8997Z" fill="white"/>
<path d="M31.5772 43.8997H36.2759L36.3953 44.019V46.4878C36.3953 46.6486 36.0701 46.9052 35.8817 46.9298C35.1318 47.0285 32.7365 47.0182 31.9738 46.9274C31.7927 46.9057 31.4578 46.767 31.4578 46.5677V44.019L31.5772 43.8997Z" fill="white"/>
</svg>
