<svg width="47" height="47" viewBox="0 0 47 47" fill="none" xmlns="http://www.w3.org/2000/svg">
<path d="M11.3036 19.8575V20.0119C11.3036 20.0119 11.1507 19.9546 11.0928 20.0119C11.0344 20.0693 9.44162 19.3014 9.44162 19.3014L9.22925 19.3212L9.09518 19.3593H8.84582L8.63452 19.3014V19.2054L8.76966 19.148C8.76966 19.148 9.09572 18.9565 9.1531 18.9565C9.21049 18.9565 9.69099 19.052 9.74784 19.052C9.80468 19.052 9.99828 19.148 9.99828 19.148C9.99828 19.148 10.2664 19.052 10.3436 19.148C10.4198 19.2445 10.4777 19.2059 10.6118 19.3212C10.7464 19.436 10.7464 19.3786 10.8435 19.4934C10.8681 19.5234 10.8772 19.5336 10.8799 19.5357C10.8799 19.5347 10.8783 19.5325 10.8767 19.5298C10.8821 19.5357 10.8982 19.5566 10.9384 19.6087C11.0735 19.7813 11.1888 19.82 11.2457 19.8387L11.3036 19.8575Z" fill="white"/>
<path d="M13.4166 20.3769C13.1672 20.4729 13.1672 20.415 13.0321 20.4917C12.8974 20.5684 12.9934 20.5298 12.8974 20.5684C12.8036 20.6059 12.5816 20.57 12.5725 20.5684C12.566 20.57 12.5403 20.5743 12.4566 20.5856C12.3033 20.607 12.1488 20.6413 12.0914 20.5856C12.034 20.5298 12.034 20.6054 11.9182 20.6156C11.8029 20.6263 11.7069 20.6054 11.5728 20.6156L11.4382 20.6263L11.7648 20.5298L11.9177 20.511H11.9182L12.0533 20.4343L12.1483 20.3088L12.0909 20.1463V20.0144C12.0909 20.0144 12.2636 19.979 12.3413 20.0144C12.4175 20.0504 12.5709 20.0144 12.5709 20.0144C12.5709 20.0144 12.4947 19.9533 12.6668 20.0305C12.8401 20.1077 12.8969 20.0691 12.9929 20.1077C13.0894 20.1463 13.1672 20.1657 13.282 20.2032C13.3967 20.2418 13.3774 20.1077 13.3967 20.2418C13.4166 20.3769 13.6654 20.281 13.4166 20.3769Z" fill="white"/>
<path d="M16.9599 5.7116L16.9243 5.69541C16.9243 5.69541 17.1164 5.5918 16.9599 5.7116Z" fill="white"/>
<path d="M19.756 10.4892C19.6348 10.4538 19.5656 10.361 19.4257 10.3535C19.2482 10.3444 19.0674 10.4522 18.8862 10.412C18.5274 10.3321 18.9843 10.1052 19.1388 10.0242C19.4214 9.8757 19.5093 9.63276 19.733 9.41396V9.39466C19.7635 9.37106 19.771 9.348 19.8075 9.35819C19.815 9.52712 19.8011 9.72179 19.867 9.87462C19.9292 10.0162 20.1046 10.0773 20.288 10.0886C20.3261 10.375 20.0386 10.5723 19.756 10.4892Z" fill="white"/>
<path d="M33.1856 8.02487C33.0579 8.17825 32.8273 8.22973 32.8273 8.22973H32.6986L32.5967 8.40831H31.803L31.5982 8.30642L31.3938 8.28068H31.2651L31.3938 8.02487H31.7773L32.1875 7.74279C32.1875 7.74279 32.29 7.64036 32.3919 7.74279C32.4943 7.84576 32.571 7.85112 32.6482 7.86131C32.7243 7.87042 32.8016 7.87632 32.8783 7.86131C32.9555 7.84575 33.0579 7.86131 33.0579 7.86131H33.1856C33.1856 8.02487 33.3143 7.87042 33.1856 8.02487Z" fill="white"/>
<path d="M35.7708 8.86937L35.5917 8.99754V9.27962L35.4383 9.35631H35.0796C35.0796 9.35631 34.6961 9.43299 34.5422 9.43299L34.3121 9.53542H33.9534C33.9534 9.53542 34.3121 9.35631 34.3121 9.27962C34.3121 9.20186 34.4913 9.27908 34.4913 9.27908L34.6709 9.04795L34.4913 8.94605H34.3121V8.5106H34.4913V8.40763H34.6709V7.9475L34.5679 7.81933L34.3121 7.69706V7.56353L34.3379 7.4611C34.3636 7.3592 34.3379 7.4611 34.3636 7.30772C34.3888 7.15435 34.3636 7.30772 34.4151 7.05192C34.465 6.79558 34.5679 7.05192 34.5679 7.05192L34.7213 7.15435V7.53832C34.7213 7.61501 34.7728 7.69706 34.7728 7.69706H34.9771L35.0801 7.94804L35.2083 8.23656L35.2592 8.40817L35.6174 8.74173L35.7708 8.86937Z" fill="white"/>
<path d="M37.4007 12.7972C37.1438 13.0455 37.4489 13.3737 37.1668 13.6134C36.7904 13.9335 36.9336 13.1195 36.9357 12.9269C36.9373 12.7548 36.94 12.6427 36.9979 12.4813C37.0392 12.3644 37.1856 12.1472 37.1856 12.063L37.2623 12.1783C37.3696 12.2743 37.5755 12.2207 37.628 12.3885C37.686 12.5789 37.509 12.6915 37.4007 12.7972Z" fill="white"/>
<path d="M46.6245 23.4392V23.6344C46.625 23.5894 46.625 23.5449 46.625 23.5003C46.625 23.48 46.625 23.4596 46.6245 23.4392Z" fill="white"/>
<path d="M45.1536 14.3524C43.97 11.5541 42.2759 9.04112 40.1174 6.88314C37.9594 4.72462 35.4469 3.03051 32.6486 1.84694C29.7511 0.621547 26.6734 0 23.5008 0C20.3282 0 17.2505 0.621547 14.3535 1.84694C11.5547 3.03051 9.04166 4.72462 6.88314 6.8826C4.72515 9.04059 3.03051 11.5541 1.84694 14.3524C0.621547 17.2499 0 20.3276 0 23.5003C0 26.6729 0.621547 29.7501 1.84694 32.6476C3.03051 35.4459 4.72515 37.9594 6.88367 40.1174C9.04166 42.2754 11.5552 43.97 14.3535 45.1536C17.251 46.379 20.3287 47 23.5008 47C26.6729 47 29.7506 46.379 32.6481 45.1536C35.4464 43.97 37.9594 42.2754 40.1174 40.1174C42.2754 37.9594 43.97 35.4459 45.1536 32.6476C46.379 29.7501 47.0005 26.6724 47.0005 23.5003C47.0005 20.3282 46.379 17.2499 45.1536 14.3524ZM0.75079 23.5003C0.75079 21.752 0.948677 20.0493 1.32407 18.4131C1.5359 18.7 2.12581 19.4422 2.12581 19.4422C2.12581 19.4422 1.68928 20.0305 2.07433 20.2102C2.45777 20.3893 2.38108 20.2617 2.91896 20.6451C3.43647 21.0152 3.81187 21.1717 3.83868 21.1825C3.79739 21.1744 3.10666 21.0393 4.27521 21.3884C5.47809 21.7466 5.60626 21.8228 5.65774 21.7466C5.70976 21.6694 5.73496 21.2854 5.86313 21.6437C5.99077 22.0024 5.78645 21.951 6.27124 22.2582C6.75872 22.5655 7.34755 23.0519 7.50093 23.1544C7.65484 23.2568 7.88491 23.4359 7.88491 23.4359C7.88491 23.4359 8.65339 24.0087 8.72954 24.0419C8.80677 24.0762 9.75384 24.3572 9.75384 24.3572C9.75384 24.3572 10.2654 24.1266 10.3684 24.383C10.4703 24.6388 10.5218 24.767 10.4703 24.9466C10.4199 25.1263 9.93295 26.0219 9.93295 26.0219L9.57526 26.7131L9.11352 27.2762V27.9417C9.11352 27.9417 9.11352 27.9932 9.21648 28.1214C9.31838 28.249 9.11352 29.017 9.11352 29.017L9.52377 29.5549C9.52377 29.5549 9.65141 30.0155 9.75437 30.1952C9.8568 30.3743 10.0606 30.8087 10.1383 30.9374C10.2145 31.065 10.3684 31.2189 10.3684 31.2189C10.3684 31.2189 10.6752 31.5257 10.7781 31.7815C10.8811 32.0384 11.1106 32.166 11.2136 32.3194C11.3155 32.4738 11.1364 32.3446 11.3155 32.4738C11.4951 32.6009 11.4179 32.5242 11.7011 32.6776C11.9815 32.8321 11.4689 32.2942 11.9815 32.8321L12.4937 33.3694C12.4937 33.3694 12.6213 33.3437 12.8262 34.0097C13.0321 34.6752 13.134 34.8538 13.134 34.8538V36.313C13.134 36.313 13.2359 36.7485 13.134 36.9534C13.0321 37.1582 13.0053 38.0029 13.0321 38.2335C13.0568 38.4635 13.1222 38.4898 13.1796 38.8738C13.2359 39.2572 13.2879 39.5902 13.3137 39.9479C13.3383 40.3072 13.3137 40.3577 13.3137 40.6397C13.3137 40.9218 13.1313 41.5873 13.3249 41.9971C13.5174 42.4062 13.1849 41.9971 13.7995 42.6363C14.4141 43.2766 14.568 43.1742 14.568 43.4815C14.568 43.7888 14.5165 43.9169 14.7729 44.4543C14.7836 44.4773 14.7927 44.4993 14.7997 44.5202C6.55976 41.0972 0.75079 32.964 0.75079 23.5003ZM45.0378 16.1903C44.9616 16.1903 44.5513 16.2932 44.4757 16.1903C44.3985 16.0889 43.6563 15.8326 43.6563 15.8326C43.5024 15.935 42.9902 15.935 42.9902 15.935C42.8363 15.9098 42.5811 15.8068 42.5811 15.8068L42.1965 15.602L41.531 15.551C41.531 15.551 41.4286 15.6786 41.4286 15.832C41.4286 15.9854 41.5825 16.1023 41.4286 16.2364C41.2758 16.3699 41.1728 16.4214 41.0961 16.4214C41.0194 16.4214 40.9427 16.4466 40.8655 16.4214C40.7883 16.3962 40.2263 16.2675 40.0595 16.2289C39.8922 16.1897 39.6294 15.9983 39.6294 15.9983V15.8063L39.1628 15.6143C39.1628 15.6143 39.0094 15.5757 38.8941 15.5381C38.7799 15.4995 38.434 15.2689 38.434 15.2689L38.3949 14.8469V14.6163L38.2801 14.3476C38.2801 14.3476 38.2801 14.0784 38.1648 14.0784C38.0495 14.0784 37.5502 14.2323 37.5502 14.2323L37.2429 14.2704H36.8595C36.8595 14.2704 37.0515 14.2323 36.6675 14.2323H35.5151C35.2469 14.501 34.671 14.8844 34.671 14.8844C34.671 14.8844 33.9668 14.8463 33.9534 14.8077C33.9411 14.7697 33.4515 14.693 33.4515 14.693C33.4515 14.693 33.3887 14.9236 33.2428 15.0383L33.0959 15.1536L32.6358 15.5757L32.2539 15.8449C32.2513 16.0755 32.3725 16.3286 32.2539 16.4321C32.1365 16.5367 31.8678 16.8048 31.8678 16.8048H31.6748C31.6748 16.8048 31.5214 16.9968 31.4452 17.1121C31.3675 17.2269 31.2656 17.3427 31.2656 17.3427C31.2656 17.3427 31.1369 17.4189 31.0607 17.5728C30.9846 17.7267 30.7915 17.8801 30.7915 17.8801L30.4081 18.4941C30.4081 18.4941 30.6006 18.4174 30.4081 18.6861C30.2155 18.9553 30.0627 19.032 29.986 19.2621C29.9088 19.4932 29.9469 19.1092 29.9088 19.4932C29.8702 19.8766 29.7554 19.9152 29.9088 20.0686C30.0627 20.2225 30.0627 20.1839 30.0627 20.4145C30.0627 20.6451 30.1013 20.6446 30.0241 20.8757C29.9469 21.1058 29.9453 20.9519 29.831 21.3358C29.7168 21.7198 29.7919 22.0276 29.831 22.1429C29.8702 22.2577 29.5629 21.8743 29.8702 22.2577C30.178 22.6417 30.2933 22.7377 30.4467 22.92C30.6006 23.1024 30.3695 22.4497 30.6006 23.1024C30.8307 23.755 30.754 23.6365 30.946 24.0414C31.1374 24.4463 31.0479 24.4463 31.2656 24.7149C31.4838 24.9842 31.4077 24.9455 31.6748 25.1375C31.9445 25.3295 31.2527 25.1761 31.9445 25.3295C32.6358 25.4834 32.4819 25.5601 32.9425 25.3295C33.4032 25.0989 33.0573 25.1375 33.4032 25.0989C33.7491 25.0608 34.1325 25.0608 34.1325 25.0608C34.1325 25.0608 34.2489 25.1375 34.3637 25.1375C34.4784 25.1375 35.0941 24.9455 35.0941 24.9455C35.0941 24.9455 34.9777 24.8302 35.285 24.7144C35.5923 24.5996 35.3622 24.6377 35.5923 24.5996L35.8234 24.561C35.8234 24.561 35.9768 24.4843 36.2069 24.5996C36.4375 24.7144 36.6294 24.8302 36.7834 24.9836C36.8686 25.0694 36.823 25.0115 36.8123 24.9976C36.8204 25.0051 36.852 25.041 36.9367 25.1375C37.2049 25.4448 37.5894 25.4748 37.5894 25.4748C37.5894 25.4748 37.6661 25.3129 37.7814 25.4748C37.8956 25.6363 37.9342 25.5977 38.0114 25.8288C38.0887 26.0589 38.0495 25.713 38.0887 26.0589C38.1262 26.4048 37.8956 26.1742 37.9723 26.6354C38.0495 27.096 37.9342 26.712 38.0495 27.096C38.1643 27.48 37.9723 27.1727 38.2415 27.672C38.5102 28.1707 38.0785 27.9407 38.5241 28.4019C38.5241 28.4019 38.9456 28.8362 38.9456 28.9644C38.9456 29.0926 38.9199 28.9392 38.9714 29.2208C39.0218 29.5018 39.0733 29.5538 39.15 29.7066C39.2272 29.8611 39.2529 30.0906 39.3033 30.2188C39.3548 30.3469 39.3291 30.4756 39.38 30.7057C39.4315 30.9363 39.4058 31.0897 39.3543 31.2173C39.3028 31.3455 39.2524 31.3712 39.1757 31.6013C39.0985 31.8314 38.9714 31.7037 38.8941 32.1129C38.818 32.5232 38.7408 32.5232 38.818 32.8304C38.8941 33.1372 38.8684 33.2911 38.9456 33.5212C39.0218 33.7518 39.0727 33.8027 39.2529 34.0843C39.4315 34.3658 39.5447 34.6736 39.6288 34.878C39.713 35.0828 39.6626 34.9546 39.7645 35.3392C39.867 35.7226 39.8407 35.5177 39.9436 36.0047C40.0455 36.4911 40.0209 36.6187 40.2005 37.029C40.3786 37.4376 40.5325 37.6178 40.6097 37.6688C40.6869 37.7197 40.6869 37.5406 40.8398 37.9498C40.8741 38.0409 40.888 38.1037 40.8918 38.1503C36.7158 43.1002 30.4692 46.2497 23.5008 46.2497C20.8848 46.2497 18.3702 45.8057 16.0288 44.9895C16.1913 44.9418 16.2058 44.8892 16.2058 44.8892C16.2058 44.8892 16.2573 44.6334 16.3345 44.531C16.4112 44.428 16.5903 43.9421 16.5903 43.8145C16.5903 43.6869 16.4112 43.0466 16.4112 43.0466L16.1554 42.5344C16.1554 42.5344 15.9757 42.2523 16.1554 41.9713C16.3345 41.6892 16.5903 41.1261 16.5903 41.1261C16.5903 41.1261 16.4107 40.8703 16.5903 40.7936C16.7694 40.717 16.9233 40.6392 17 40.5625C17.0762 40.4864 17.2564 40.23 17.2564 40.1533C17.2564 40.0766 17.4097 39.6921 17.2564 39.4878C17.1025 39.2829 16.9738 39.2315 17.1277 39.129C17.281 39.0266 17.7422 38.6941 17.7422 38.6941C17.7422 38.6941 17.8967 38.7708 18.0243 38.7199C18.1525 38.6684 18.4598 38.182 18.5869 38.0281C18.7156 37.8747 18.869 37.5931 18.921 37.5164C18.9719 37.4392 19.1505 36.9534 19.202 36.6203C19.2529 36.2873 19.2792 36.2106 19.4321 36.1597C19.5854 36.1087 19.6375 36.0315 19.7651 35.9543C19.8927 35.8776 19.9179 35.9033 20.1753 35.647C20.4301 35.3912 20.1485 35.3654 20.6097 35.2635C21.0699 35.1611 21.1734 35.1096 21.2495 35.0844C21.3273 35.0587 21.5311 34.9305 21.6587 34.8029C21.7863 34.6752 21.8641 34.4698 22.0432 34.2907C22.2229 34.1116 22.3247 33.8301 22.3247 33.7534C22.3247 33.6767 22.1456 33.5233 22.3247 33.2418C22.5033 32.9597 22.299 33.1136 22.6578 32.499C23.016 31.885 23.1436 31.2704 23.2713 31.168C23.4 31.0656 23.6043 29.9651 23.6043 29.9651C23.6043 29.9651 23.5791 29.5806 23.6043 29.4782H23.6054C23.6306 29.3747 22.7613 28.3766 22.7613 28.3766L22.0705 28.1975L20.5851 27.7369L19.9962 27.4553L19.3302 27.7111C19.3302 27.7111 18.9725 27.8902 18.7167 27.865C18.4609 27.8393 18.0506 27.5578 18.0506 27.4811C18.0506 27.4044 18.0249 27.2762 18.1021 27.199C18.1793 27.1228 18.4094 26.7389 18.4609 26.6616C18.5118 26.5849 18.537 26.534 18.537 26.3286C18.537 26.1232 18.6904 25.7398 18.4351 25.5612C18.1793 25.3815 16.6681 24.9209 16.6681 24.9209C16.6681 24.9209 16.3608 24.4345 16.2584 24.3578C16.1559 24.2811 15.2083 23.9486 15.2083 23.9486C15.2083 23.9486 14.9783 23.7432 14.901 23.6928C14.8254 23.6413 14.0821 23.3083 14.0821 23.3083L12.853 23.2059C12.853 23.2059 12.9812 22.9436 12.6481 22.9211C12.3162 22.8986 12.0341 23.2316 12.0341 23.2316C12.0341 23.2316 12.0341 23.5131 11.9059 23.6413C11.7783 23.7689 11.3428 23.334 11.3428 23.334C11.3428 23.334 11.3686 23.1554 11.2147 23.3083C11.0618 23.4622 10.7792 23.4112 10.703 23.5904C10.6258 23.7689 10.4467 23.8204 10.4467 23.8204C10.4467 23.8204 9.95977 23.4107 9.85787 23.4365C9.75544 23.4617 9.2433 23.5904 9.2433 23.5904C9.2433 23.5904 9.26958 23.6665 9.11513 23.6413C8.96175 23.6156 8.24421 22.9216 8.24421 22.9216C8.24421 22.9216 8.21954 22.72 8.24421 22.6433C8.27102 22.5666 8.23349 21.8491 8.23349 21.8491L8.01522 21.4908C8.01522 21.4908 7.65645 21.4141 7.57923 21.4908C7.502 21.5675 6.70885 21.2608 6.78661 21.1321C6.86276 21.0044 7.01613 21.0044 7.09229 20.7486C7.17005 20.4923 7.17005 19.8268 7.17005 19.8268L7.3749 19.571C7.3749 19.571 6.87777 19.3404 6.78071 19.571C6.6831 19.8005 6.29967 20.0574 6.27285 20.1598C6.2514 20.2461 5.33865 20.3689 5.05389 20.4054C5.06783 20.3727 5.0555 20.2976 4.96862 20.1346C4.76269 19.7506 4.50742 18.9312 4.50742 18.8545C4.50742 18.7778 4.14812 18.5215 4.50742 18.1123C4.86566 17.702 4.83992 17.5739 4.89086 17.4972C4.94234 17.4205 5.45449 17.1395 5.60733 17.088C5.76178 17.0365 5.86474 16.8316 6.14575 16.8316C6.42676 16.8316 6.63216 16.8574 6.70831 16.8316C6.78607 16.8059 6.86222 16.9089 7.0156 16.8316C7.16951 16.755 7.06654 16.7292 7.40011 16.601C7.73207 16.4729 7.88598 16.4734 8.09084 16.601C8.29569 16.7292 8.96122 16.6531 8.96122 16.6531C8.96122 16.6531 9.03844 16.32 9.16607 16.7807C9.29424 17.2414 9.31891 17.1647 9.39668 17.4205C9.47283 17.6768 9.90775 17.9584 9.90775 17.9584C9.90775 17.9584 9.95923 18.419 10.0611 17.7792C10.1298 17.3524 10.1646 17.088 10.1646 16.9856C10.1646 16.8322 10.1646 16.2433 10.2408 16.1667C10.318 16.09 11.1626 15.0657 11.1626 15.0657C11.1626 15.0657 11.7011 14.5787 11.8791 14.3492C12.0588 14.1186 12.2631 13.7856 12.2631 13.7856C12.2631 13.7856 12.5698 13.2225 12.6471 13.1458C12.7243 13.0691 12.9801 12.9924 13.2879 12.89C13.5947 12.787 13.902 12.7361 14.0805 12.5312C14.2597 12.3274 14.2859 12.122 14.4908 12.0196C14.6951 11.9177 14.6436 11.7896 15.0024 11.559C15.3612 11.3284 15.4888 11.3793 15.8722 11.2517L16.2562 11.124C16.2562 11.124 16.3592 11.3026 16.3844 11.5847C16.4101 11.8657 16.1795 11.8914 16.4101 11.8657C16.6402 11.8405 16.7946 11.8148 17.0242 11.6356C17.2553 11.4565 17.1266 11.559 17.2553 11.4565C17.3829 11.3536 17.4081 10.7985 17.4081 10.7985C17.4081 10.7985 17.613 10.5604 17.3572 10.3813C17.1009 10.2016 17.1271 10.1507 16.9223 10.2016C16.718 10.2531 16.2562 10.3432 16.2562 10.1834C16.2562 10.0236 17.0242 9.58759 17.0242 9.58759C17.0242 9.58759 17.4081 9.6128 17.7927 9.58759C18.1772 9.56185 18.8674 9.5109 19.0218 9.30604C19.1752 9.10119 20.148 8.8191 20.148 8.8191C20.148 8.8191 20.3276 8.3327 20.1228 8.17879C19.9174 8.02595 19.6364 8.12731 19.4825 7.71812C19.3286 7.30841 18.9199 6.46377 18.8674 6.38708C18.8153 6.31039 18.2785 6.13127 18.2024 6.13127H17.8699L16.9577 5.71244C16.9089 5.74998 16.8268 5.80897 16.6917 5.90067C16.1286 6.28465 16.0771 6.20796 15.9747 6.36134C15.8722 6.51471 15.617 6.71957 15.4373 6.97591C15.2582 7.23172 15.3097 7.25692 15.13 7.5138C14.9509 7.76907 14.9498 7.89724 14.6694 8.1021C14.3878 8.30696 13.5174 9.10065 13.5174 9.10065C13.5174 9.10065 13.1083 9.15213 13.0825 8.71667C13.0568 8.28122 12.9291 7.94819 12.9291 7.84629C12.9291 7.7444 12.4937 7.48752 12.4937 7.48752C12.4937 7.48752 11.6742 7.51326 11.6228 7.33361C11.5713 7.15449 11.4689 7.02632 11.4689 6.84721C11.4689 6.66809 11.3927 6.3356 11.5203 6.15541C11.6496 5.97683 11.6496 5.6631 11.8786 5.65291C12.1092 5.6438 12.1607 5.54137 12.5446 5.48989C12.9291 5.43894 13.2879 5.4132 13.4912 5.28556C13.696 5.15739 13.7985 4.95307 14.0805 4.90159C14.3621 4.8501 14.464 4.87585 14.7718 4.77342C15.0791 4.67099 15.3606 4.54335 15.4883 4.54335C15.6159 4.54335 15.8717 4.41894 16.0004 4.41679C16.1286 4.41518 16.2562 4.15884 16.2562 4.15884L16.5131 3.39089C16.5131 3.39089 16.3334 3.44184 15.7703 3.6467C15.2067 3.85209 15.2845 4.41518 14.8479 3.97972C14.4141 3.54587 13.9754 3.06108 13.9754 3.03319C13.9776 3.00692 13.696 2.98171 13.5684 3.21124C13.4397 3.44184 13.2611 3.51906 13.0562 3.74966C12.8508 3.97972 12.9023 4.05641 12.4674 4.05641C12.3178 4.05641 12.0529 4.03818 11.7702 4.01458C12.7447 3.42521 13.7673 2.90717 14.8297 2.46742L14.7986 2.52373L14.856 2.67442L14.9139 2.65512C14.9713 2.63635 15.0287 2.65512 15.1054 2.57628C15.1826 2.49852 15.1826 2.52373 15.1826 2.52373C15.1826 2.52373 15.4126 2.42505 15.4706 2.38805C15.5279 2.35105 15.6239 2.38805 15.6239 2.38805C15.6239 2.38805 15.7012 2.38644 15.758 2.38805C15.8159 2.38966 15.758 2.25183 15.758 2.25183H15.3714C15.6979 2.12634 16.0288 2.00783 16.3624 1.89735C16.371 1.8995 16.3844 1.90218 16.4042 1.90647H16.4037C16.5324 1.93221 16.6327 1.90593 16.6327 1.90593C16.6327 1.90593 16.6997 1.97029 16.8274 1.97029H17.2365C17.2365 1.97029 17.4151 1.93168 17.4677 1.97029C17.5192 2.0089 17.6216 1.93168 17.6725 1.97029C17.724 2.0089 17.7873 1.92792 17.8388 1.98155C17.8892 2.03411 18.0431 2.03411 18.0431 2.03411H18.2871C18.2871 2.03411 18.4019 2.04698 18.441 2.03411C18.4796 2.02177 18.5172 2.08398 18.5558 2.04C18.5939 1.99657 18.6963 1.86786 18.6963 1.86786C18.6963 1.86786 18.7601 1.80404 18.6459 1.77186C18.5306 1.73969 18.6459 1.77884 18.4024 1.77186C18.1589 1.76543 18.0694 1.77186 18.0694 1.77186C18.0694 1.77186 17.9927 1.74022 17.9541 1.77186C17.9165 1.80351 17.9031 1.7531 17.7621 1.77186C17.621 1.79117 17.4033 1.77186 17.4033 1.77186H17.2886L17.1609 1.71448C17.1609 1.71448 17.1475 1.68928 17.1089 1.68928C17.0971 1.68928 17.0842 1.68338 17.0724 1.67533C17.3593 1.5906 17.6484 1.51123 17.9401 1.4383C18.027 1.46779 18.1359 1.49783 18.1584 1.48817C18.197 1.47101 18.3885 1.48817 18.3885 1.48817L18.5552 1.4324C18.5552 1.4324 18.604 1.38145 18.6502 1.4324C18.6963 1.48388 18.8749 1.48817 18.8749 1.48817C18.8749 1.48817 18.914 1.49675 18.9912 1.56111C19.0679 1.62439 19.2213 1.62439 19.2213 1.62439C19.2213 1.62439 19.298 1.57398 19.3361 1.56111C19.3741 1.54824 19.4894 1.55682 19.4771 1.48817C19.4648 1.41953 19.5538 1.36858 19.5913 1.35571C19.631 1.34338 19.7072 1.26669 19.7844 1.25382C19.8605 1.24095 19.8868 1.21521 20.001 1.1766C20.1163 1.13852 20.1936 1.12994 20.2322 1.10205C20.2708 1.07417 20.3856 0.997478 20.437 0.997478C20.4714 0.997478 20.5625 0.957258 20.6306 0.93098C21.5707 0.811926 22.5291 0.750791 23.5008 0.750791C23.5485 0.750791 23.5963 0.75079 23.6435 0.751327C23.637 0.818361 23.629 0.875743 23.6065 0.90792C23.5255 1.02322 22.9586 1.03716 22.9586 1.03716C22.9586 1.03716 22.1515 0.984608 21.9987 0.90792C21.8448 0.831232 21.5761 1.1766 21.5761 1.1766V1.48817H21.8062C21.8062 1.48817 22.8053 1.33051 23.0353 1.4072C23.2654 1.48388 23.0353 1.4072 23.0734 1.62439C23.112 1.84212 23.2268 2.05609 23.2268 2.05609L23.8033 2.25183L24.1685 2.52105C24.1685 2.52105 24.2065 2.5012 24.2259 2.6165C24.2457 2.7318 24.2827 2.71303 24.2259 2.82833C24.1685 2.9431 24.0537 3.01657 24.0537 3.01657V3.193C24.0537 3.193 24.1685 3.15386 24.0912 3.34638C24.0146 3.53837 23.9561 3.59575 23.8993 3.63382C23.8413 3.67297 23.7641 3.67297 23.7453 3.74966C23.7266 3.82635 23.6059 4.00386 23.6059 4.00386C23.6059 4.00386 23.4096 4.09449 23.4718 4.15294C23.5346 4.21032 23.4718 4.41733 23.4718 4.41733C23.4718 4.41733 23.3035 4.55622 23.1887 4.59376C23.0739 4.63291 22.9967 5.0555 22.9586 5.20834C22.9205 5.36279 23.0739 5.75588 23.0739 5.75588C23.0739 5.75588 23.2268 5.97683 23.4724 6.0149C23.7175 6.05351 24.6865 6.0149 24.7246 5.75588C24.7632 5.49686 25.3011 5.47701 25.3011 5.47701L25.5703 5.17026C25.8384 4.86298 25.7612 5.01635 25.9924 4.67099C26.223 4.32562 26.223 4.67099 26.223 4.67099C26.223 4.67099 26.9137 4.63291 27.3363 4.41733C27.7133 4.22534 27.5594 4.37603 27.5224 4.41143C27.5781 4.37335 27.8919 4.15723 28.0661 4.00386C28.0661 4.00386 28.9483 3.78827 29.2561 3.67136C29.5624 3.55553 29.4481 3.71158 29.5624 3.67136C29.6787 3.63222 29.8316 3.67136 29.8316 3.67136C29.8316 3.67136 29.986 3.63436 30.178 3.48098C30.3695 3.32707 30.0627 3.289 30.0627 3.289C30.0627 3.289 29.9469 3.0584 29.986 3.0171C30.0241 2.97527 30.2166 2.79669 30.2166 2.79669V2.57682L30.4086 2.46313C30.4086 2.46313 30.5529 2.30064 31.1589 2.07647C33.3833 2.87445 35.448 4.00868 37.2917 5.41856C37.2038 5.57033 36.9566 5.5419 36.9936 5.72692C37.0311 5.91837 36.9936 5.75213 37.0311 6.02777C37.0697 6.30288 37.051 6.32165 37.1282 6.43695C37.2043 6.55279 37.2231 6.62894 37.2816 6.72547C37.3389 6.82093 37.4735 6.84023 37.4735 6.84023C37.4735 6.84023 37.569 6.87831 37.8001 6.82093C38.0302 6.76355 38.3182 6.64825 38.4335 6.64825C38.5488 6.64825 38.5681 6.64825 38.6641 6.80216C38.7601 6.95553 38.7022 6.87831 38.7799 7.12822C38.8561 7.37812 38.7799 7.45481 38.8941 7.57011C39.0094 7.68487 39.1435 7.76692 39.2594 7.69721C39.3741 7.62749 39.5189 7.5315 39.6294 7.49342C39.6342 7.49181 39.639 7.48967 39.6444 7.48699C39.8868 7.73153 40.1244 7.98144 40.3555 8.23724C40.2306 8.24421 40.0482 8.25976 40.0085 8.2367C39.9495 8.20399 39.653 8.28068 39.6294 8.3386C39.6053 8.39598 39.3741 8.44103 39.3167 8.40831C39.2594 8.37667 38.9526 8.2367 38.9526 8.2367H38.5869C38.5869 8.2367 38.3761 8.28872 38.3187 8.2367C38.2608 8.18469 38.1847 8.26942 38.1262 8.2367C38.0683 8.20399 37.8774 8.36434 37.857 8.40831C37.8382 8.4539 37.8382 8.36434 37.7041 8.40831C37.569 8.4539 37.5888 8.32573 37.4542 8.40831C37.3196 8.49197 37.2043 8.4539 37.1657 8.53059C37.1282 8.60727 36.9936 8.64589 36.9743 8.70327C36.955 8.76011 37.0123 8.70327 36.859 8.85611C36.7061 9.01002 36.5517 9.06794 36.4938 9.10655C36.4369 9.14462 36.4557 9.14462 36.3409 9.20201C36.2256 9.25939 36.1296 9.31731 36.0143 9.394C35.899 9.47068 35.7451 9.5286 35.611 9.62459C35.4764 9.72112 35.4196 9.79728 35.2845 9.87396C35.1509 9.95065 35.0351 9.98926 34.8619 10.0091C34.6886 10.0279 34.5557 10.0477 34.4977 10.0665C34.4403 10.0858 34.1904 10.0858 34.1904 10.1625C34.1904 10.2392 34.2677 10.3545 34.3631 10.3931C34.4597 10.4312 34.671 10.4891 34.7278 10.5266C34.7863 10.5652 34.671 10.4312 34.7863 10.5652C34.901 10.6993 34.8238 10.7771 34.8619 10.8725C34.901 10.9685 34.8045 10.8532 34.8619 11.0645C34.9198 11.2758 34.8619 11.3525 34.8619 11.4871V11.6217C34.8619 11.8131 34.9959 11.7177 34.8619 11.8131C34.7723 11.8775 34.6956 11.9097 34.6318 11.9097C34.5358 11.9097 34.3122 11.8131 34.3122 11.8131C34.3122 11.8131 34.132 11.7365 33.9534 11.8131C33.7748 11.8898 33.6161 11.7708 33.4515 11.7794C33.2884 11.7879 33.467 11.7879 33.2884 11.7879C33.1098 11.7879 33.0578 11.7879 32.9811 11.8394C32.9039 11.8904 32.802 11.9923 32.802 11.9923V12.2218C32.802 12.2218 32.8272 12.0931 32.9811 12.2218C33.134 12.351 33.4515 12.351 33.4515 12.351L33.5566 12.4787C33.5566 12.4787 33.5694 12.5559 33.5566 12.6326C33.5432 12.7093 33.4515 12.8632 33.4515 12.8632C33.4515 12.8632 33.5399 12.9399 33.4515 13.068C33.3651 13.1962 33.4515 13.4005 33.4515 13.4005C33.4515 13.4005 33.3501 13.5287 33.2423 13.5802C33.134 13.6311 33.0825 13.7078 33.0825 13.7845C33.0825 13.8612 33.2423 14.1433 33.2423 14.1433H33.9529C33.9529 14.1433 34.1835 14.22 34.3116 14.1433C34.4404 14.0661 34.8613 13.836 34.8613 13.836C34.8613 13.836 34.9766 13.6563 35.0024 13.5802C35.0281 13.5035 35.1563 13.2472 35.1563 13.2472L35.2587 12.9785L35.5912 12.6841L35.7703 12.5049L35.9242 12.2229V12.121L36.3592 11.7794H36.5393C36.5393 11.7794 36.6166 11.6421 36.7431 11.7794L36.8724 11.9167L37.384 11.8909L37.6135 11.7182L37.8951 11.5579L38.0747 11.7118L38.3053 11.9413C38.3053 11.9413 38.3568 11.9676 38.4592 12.0443C38.5611 12.1204 38.6641 12.144 38.7917 12.2223C38.9199 12.3001 39.0475 12.4025 39.0475 12.4025L39.4572 12.6835C39.4572 12.6835 39.5447 12.6835 39.6288 12.735C39.713 12.786 39.816 12.8675 39.816 12.8675V13.0423C39.816 13.0423 39.8922 13.0932 39.9436 13.1699C39.9951 13.2466 39.8922 13.2466 39.9436 13.3491L39.9951 13.452C39.9951 13.452 39.8664 13.733 39.9951 13.733H40.1222V12.8675C40.1222 12.8675 40.2509 12.7693 40.3528 12.8675L40.4563 12.9656L40.6606 12.9914C40.6606 12.9914 40.7116 12.8675 40.5325 12.8675C40.3534 12.8675 39.8922 12.6074 39.8922 12.6074L39.5087 12.351L39.3543 12.2218L39.1242 11.8641L38.9456 11.5573H38.7665L38.8689 11.2243C38.8689 11.2243 39.0733 11.2501 39.15 11.2243C39.2272 11.1991 39.3296 11.4549 39.3296 11.4549C39.3296 11.4549 39.6878 11.634 39.8418 11.7113C39.9951 11.7879 40.3024 11.8898 40.3024 11.8898L40.6655 12.0432C40.644 12.0384 40.4563 11.9992 40.6676 12.1204L40.8913 12.2486C40.8913 12.2486 40.9942 12.2234 41.0956 12.4787C41.1975 12.735 40.9942 12.8374 41.0956 12.9141L41.1975 12.9914C41.1975 12.9914 41.1985 13.2466 41.3262 13.2466H41.6587C41.6587 13.2466 41.8136 13.503 41.8389 13.5796C41.8641 13.6563 42.0684 13.6306 41.8641 13.6563C41.6587 13.6815 41.7101 13.4515 41.6587 13.6815C41.6077 13.9121 41.686 14.1771 41.686 14.1771H41.8136C41.8136 14.1771 41.9922 14.2618 42.0941 14.1771C42.1966 14.0918 42.2738 13.9121 42.2738 13.9121C42.2738 13.9121 42.3253 13.733 42.2738 13.6563C42.2218 13.5796 42.0684 13.3753 42.0684 13.3753C42.0684 13.3753 41.9665 13.2724 42.018 13.1442C42.0684 13.0166 42.248 12.6261 42.4272 12.7189C42.6057 12.8112 42.8615 12.6261 42.9645 12.7189C43.0669 12.8112 43.1956 12.8112 43.2718 12.8369C43.3222 12.8541 43.4606 12.7978 43.5496 12.7575C43.5882 12.8289 43.6268 12.9013 43.6643 12.9737C43.6193 12.9946 43.4981 13.0573 43.4772 13.1195C43.4514 13.1962 43.3238 13.1962 43.3238 13.1962L43.1447 13.222L43.4514 13.7593L43.5287 13.9647L43.7072 14.2162C43.7072 14.2162 43.7072 14.1599 43.8869 14.2162C44.0172 14.2564 44.1888 14.2382 44.2725 14.2248C44.5594 14.8651 44.8179 15.521 45.0453 16.1903H45.0378ZM46.6021 22.4722C46.601 22.4502 46.5999 22.4282 46.5989 22.4063C46.5999 22.4261 46.601 22.4459 46.6021 22.4663V22.4722ZM46.6246 23.4391C46.6251 23.4595 46.6251 23.4799 46.6251 23.5003C46.6251 23.5448 46.6251 23.5893 46.6246 23.6343V23.4391Z" fill="white"/>
<path d="M46.6246 23.4391V23.6343C46.6252 23.5893 46.6252 23.5448 46.6252 23.5003C46.6252 23.4799 46.6252 23.4595 46.6246 23.4391ZM46.5989 22.4062C46.5999 22.4282 46.601 22.4502 46.6021 22.4722V22.4663C46.601 22.4459 46.5999 22.4261 46.5989 22.4062Z" fill="white"/>
<path d="M16.9599 5.71185L16.9243 5.69566C16.9243 5.69566 17.1164 5.59204 16.9599 5.71185Z" fill="white"/>
<path d="M20.5489 4.41749C20.5398 4.48024 20.5398 4.47917 20.5103 4.54674V4.54566C20.4814 4.61324 20.4422 4.58428 20.3757 4.60305C20.3307 4.61592 20.2824 4.62557 20.232 4.63201C20.1553 4.64112 20.136 4.62235 20.136 4.62235C20.136 4.62235 20.0105 4.56443 19.9531 4.52689C19.8952 4.48775 19.8185 4.45879 19.8185 4.45879C19.8185 4.45879 19.752 4.45879 19.6378 4.49794C19.523 4.53548 19.5402 4.5639 19.5402 4.59339C19.5402 4.62289 19.5488 4.75642 19.5488 4.78538C19.5488 4.81434 19.5692 4.90122 19.5783 4.9291C19.5879 4.95806 19.6271 5.05406 19.6367 5.13074C19.6458 5.20797 19.5879 5.2557 19.5686 5.28466C19.5488 5.31362 19.5016 5.32273 19.3965 5.33239C19.2903 5.34204 19.3289 5.33239 19.3005 5.32273C19.2715 5.31362 19.242 5.30396 19.242 5.30396C19.242 5.30396 19.0222 5.20743 18.9744 5.20743C18.9267 5.20743 18.8972 5.275 18.8972 5.275L18.8682 5.36134C18.8682 5.36134 18.9835 5.49541 19.1106 5.6016C19.2377 5.70671 19.1106 5.69706 19.1106 5.69706L19.0125 5.75444C19.0125 5.75444 18.7143 5.73513 18.6087 5.67775C18.503 5.62037 18.3304 5.54314 18.1764 5.38011C18.0231 5.21709 18.1287 5.29431 18.0617 5.13021C17.9946 4.96772 17.9753 5.0251 17.9185 4.9291C17.86 4.83311 17.9185 4.9291 17.8504 4.78538C17.7833 4.64112 17.8504 4.6985 17.8986 4.58374C17.9464 4.46844 18.0236 4.47809 18.0896 4.41642C18.1577 4.35421 18.5229 4.43948 18.7127 4.41642C18.9042 4.39283 18.8398 4.43948 19.0125 4.37191C19.1846 4.30541 19.0704 4.34402 19.0988 4.22872C19.1278 4.11342 19.0988 4.22872 19.0704 4.10377C19.0409 3.97882 19.0704 4.10377 19.0028 4.03674C18.9358 3.96916 18.8205 3.96005 18.8205 3.96005C18.8205 3.96005 18.7722 3.94074 18.7127 3.88336C18.6543 3.82598 18.5803 3.81633 18.503 3.7198C18.4269 3.6238 18.4558 3.65276 18.3883 3.56642C18.3218 3.48008 18.3019 3.46131 18.2542 3.39374C18.2059 3.32617 18.2542 3.39374 18.2161 3.35513C18.177 3.31705 18.1384 3.31705 18.0901 3.272C18.0429 3.22749 17.9566 3.19263 17.9185 3.16367C17.8799 3.13472 17.7935 3.12506 17.7453 3.11541C17.6975 3.10576 17.6675 3.11541 17.6107 3.11541C17.5538 3.11541 17.4675 3.13472 17.4385 3.13472C17.4096 3.13472 17.3039 3.19263 17.3039 3.19263C17.3039 3.19263 17.246 3.23071 17.121 3.25967C16.9966 3.28809 17.0535 3.25967 17.0535 3.25967C17.0535 3.25967 17.0057 3.25967 16.7843 3.18673C16.5638 3.11434 16.699 3.18673 16.699 3.18673H16.6121C16.6121 3.18673 16.4968 3.17279 16.4679 3.18244C16.4394 3.19263 16.3241 3.18244 16.285 3.18244H16.0742C16.0742 3.18244 16.0174 3.15349 15.9686 3.10576C15.9203 3.05749 15.9015 3.05749 15.8822 3.0162C15.8629 2.97437 15.8726 2.94273 15.8822 2.90358C15.8914 2.8655 15.9305 2.87569 15.9595 2.83708C15.9884 2.79901 16.0458 2.74109 16.0656 2.67405C16.0833 2.60648 16.1316 2.6644 16.1702 2.61613C16.2088 2.56841 16.2566 2.55875 16.3048 2.52336C16.3526 2.4885 16.4008 2.46276 16.4008 2.46276C16.4008 2.46276 16.4968 2.38607 16.5445 2.31957C16.5923 2.25147 16.699 2.25146 16.699 2.25146H16.8036L16.9864 2.32815L17.0926 2.46276L17.217 2.52336C17.217 2.52336 17.409 2.53945 17.5308 2.52336C17.6514 2.50781 17.7067 2.44345 17.7453 2.46276C17.7833 2.4826 17.8885 2.42468 17.9855 2.40538C18.081 2.38607 18.1378 2.50137 18.2199 2.58825C18.3009 2.67405 18.4081 2.73143 18.4081 2.73143L18.5711 2.79579C18.5711 2.79579 18.7336 2.78935 18.8977 2.74109C19.0608 2.69336 19.0028 2.74109 19.1278 2.74109C19.2528 2.74109 19.205 2.80866 19.2533 2.86604C19.301 2.92342 19.3391 2.9615 19.3391 2.9615L19.5697 3.2114C19.5697 3.2114 19.8185 3.29774 19.9531 3.33636C20.0877 3.37497 20.0309 3.442 20.0309 3.49027V3.69245C20.0309 3.79702 20.0497 3.83617 20.0497 3.83617C20.0497 3.83617 20.1837 4.0185 20.2803 4.10484C20.3763 4.19172 20.3956 4.20084 20.5012 4.25822C20.6063 4.31614 20.5586 4.35475 20.5489 4.41749Z" fill="white"/>
<path d="M11.3036 19.8575V20.0119C11.3036 20.0119 11.1507 19.9546 11.0928 20.0119C11.0344 20.0693 9.44162 19.3014 9.44162 19.3014L9.22925 19.3212L9.09518 19.3593H8.84582L8.63452 19.3014V19.2054L8.76966 19.148C8.76966 19.148 9.09572 18.9565 9.1531 18.9565C9.21049 18.9565 9.69099 19.052 9.74784 19.052C9.80468 19.052 9.99828 19.148 9.99828 19.148C9.99828 19.148 10.2664 19.052 10.3436 19.148C10.4198 19.2445 10.4777 19.2059 10.6118 19.3212C10.7464 19.436 10.7464 19.3786 10.8435 19.4934C10.8681 19.5234 10.8772 19.5336 10.8799 19.5357C10.8799 19.5347 10.8783 19.5325 10.8767 19.5298C10.8821 19.5357 10.8982 19.5566 10.9384 19.6087C11.0735 19.7813 11.1888 19.82 11.2457 19.8387L11.3036 19.8575Z" fill="white"/>
<path d="M13.4166 20.3769C13.1672 20.4729 13.1672 20.415 13.0321 20.4917C12.8974 20.5684 12.9934 20.5298 12.8974 20.5684C12.8036 20.6059 12.5816 20.57 12.5725 20.5684C12.566 20.57 12.5403 20.5743 12.4566 20.5856C12.3033 20.607 12.1488 20.6413 12.0914 20.5856C12.034 20.5298 12.034 20.6054 11.9182 20.6156C11.8029 20.6263 11.7069 20.6054 11.5728 20.6156L11.4382 20.6263L11.7648 20.5298L11.9177 20.511H11.9182L12.0533 20.4343L12.1483 20.3088L12.0909 20.1463V20.0144C12.0909 20.0144 12.2636 19.979 12.3413 20.0144C12.4175 20.0504 12.5709 20.0144 12.5709 20.0144C12.5709 20.0144 12.4947 19.9533 12.6668 20.0305C12.8401 20.1077 12.8969 20.0691 12.9929 20.1077C13.0894 20.1463 13.1672 20.1657 13.282 20.2032C13.3967 20.2418 13.3774 20.1077 13.3967 20.2418C13.4166 20.3769 13.6654 20.281 13.4166 20.3769Z" fill="white"/>
<path d="M33.1853 8.02512C33.0577 8.17849 32.8271 8.22998 32.8271 8.22998H32.6984L32.5965 8.40856H31.8028L31.5979 8.30666L31.3936 8.28092H31.2649L31.3936 8.02512H31.777L32.1873 7.74303C32.1873 7.74303 32.2897 7.6406 32.3916 7.74303C32.494 7.846 32.5707 7.85136 32.648 7.86155C32.7241 7.87067 32.8013 7.87657 32.878 7.86155C32.9552 7.846 33.0577 7.86155 33.0577 7.86155H33.1853C33.1853 8.02512 33.314 7.87067 33.1853 8.02512Z" fill="white"/>
<path d="M35.7708 8.86961L35.5917 8.99778V9.27986L35.4383 9.35655H35.0796C35.0796 9.35655 34.6961 9.43324 34.5422 9.43324L34.3121 9.53567H33.9534C33.9534 9.53567 34.3121 9.35655 34.3121 9.27986C34.3121 9.2021 34.4913 9.27933 34.4913 9.27933L34.6709 9.04819L34.4913 8.9463H34.3121V8.51084H34.4913V8.40787H34.6709V7.94775L34.5679 7.81958L34.3121 7.6973V7.56377L34.3379 7.46134C34.3636 7.35945 34.3379 7.46134 34.3636 7.30797C34.3888 7.15459 34.3636 7.30797 34.4151 7.05216C34.465 6.79582 34.5679 7.05216 34.5679 7.05216L34.7213 7.15459V7.53857C34.7213 7.61525 34.7728 7.6973 34.7728 7.6973H34.9771L35.0801 7.94828L35.2083 8.2368L35.2592 8.40841L35.6174 8.74198L35.7708 8.86961Z" fill="white"/>
<path d="M43.209 35.5904C43.3002 35.4424 43.3897 35.2927 43.4777 35.1426C43.3897 35.2933 43.3002 35.4424 43.209 35.5904Z" fill="white"/>
<path d="M46.5226 21.3275C46.5113 21.2085 46.499 21.09 46.4861 20.9714C46.4995 21.09 46.5113 21.2085 46.5226 21.3275Z" fill="white"/>
<path d="M46.6026 22.4848C46.6026 22.4805 46.6026 22.4762 46.6021 22.4725C46.601 22.4505 46.6005 22.4285 46.5989 22.4065C46.5999 22.4269 46.601 22.4467 46.6021 22.4666C46.6021 22.473 46.6021 22.4789 46.6026 22.4848Z" fill="white"/>
<path d="M37.4004 12.7974C37.1435 13.0457 37.4487 13.3739 37.1666 13.6136C36.7901 13.9338 36.9333 13.1197 36.9355 12.9272C36.9371 12.755 36.9398 12.643 36.9977 12.4815C37.039 12.3646 37.1854 12.1474 37.1854 12.0632L37.2621 12.1785C37.3693 12.2745 37.5752 12.2209 37.6278 12.3888C37.6857 12.5791 37.5087 12.6918 37.4004 12.7974Z" fill="white"/>
<path d="M19.7558 10.4892C19.6346 10.4538 19.5654 10.361 19.4254 10.3535C19.2479 10.3444 19.0672 10.4522 18.8859 10.412C18.5272 10.3321 18.9841 10.1052 19.1385 10.0242C19.4211 9.8757 19.5091 9.63276 19.7327 9.41396V9.39466C19.7633 9.37106 19.7708 9.348 19.8073 9.35819C19.8148 9.52712 19.8008 9.72179 19.8668 9.87462C19.929 10.0162 20.1044 10.0773 20.2878 10.0886C20.3258 10.375 20.0384 10.5723 19.7558 10.4892Z" fill="white"/>
</svg>
