<svg width="47" height="47" viewBox="0 0 47 47" fill="none" xmlns="http://www.w3.org/2000/svg">
<path d="M23.8913 12.4198C23.0776 12.1421 22.6472 10.58 22.2666 9.86439C22.1097 9.82993 22.0933 9.9105 22.018 10.0096C21.5637 10.606 21.004 11.9279 20.5449 12.6722C16.8111 18.7218 11.282 23.8889 4.99483 27.2114C4.36564 27.5438 2.01903 28.7656 1.45769 28.7841C0.214674 28.8249 -0.494557 27.2994 0.404439 26.4047C0.755875 26.0543 2.24802 25.5565 2.79558 25.2767C10.0554 21.5646 16.0192 15.8436 19.7164 8.54504C19.6035 8.45917 17.7425 8.97652 17.3863 8.98924C15.7155 9.04861 15.3476 6.7937 16.9696 6.28165C18.5349 5.7871 20.4686 5.68797 22.071 5.22363C22.7786 5.25385 23.0845 5.55069 23.4269 6.10991C24.2639 7.47696 24.7839 9.20392 25.6309 10.5922C26.0009 11.7445 25.0897 12.8285 23.8913 12.4198Z" fill="white"/>
<path d="M46.2454 10.2135C46.6785 10.7992 46.6514 11.5943 46.1028 12.0989C46.0238 12.1715 45.6088 12.4154 45.5393 12.4154H36.4333V17.3158H40.1114C40.7104 17.3158 41.196 17.8014 41.196 18.4004V45.9146C41.196 46.5142 40.7104 46.9997 40.1114 46.9997H29.6654C29.3447 46.9997 29.0569 46.8608 28.8581 46.6403C28.83 46.6085 28.803 46.5751 28.7786 46.5401C28.6535 46.3636 28.5803 46.1479 28.5803 45.9146V18.4004C28.5803 17.8014 29.0659 17.3158 29.6654 17.3158H33.6176V1.3735C33.6176 0.803679 34.1625 0.134202 34.7381 0.0303084C36.066 -0.208753 36.5388 1.01094 36.4333 2.12143H45.5393C45.578 2.12143 46.1346 2.46438 46.1929 2.52375C46.8809 3.22609 46.5057 4.03763 45.9804 4.67371C45.2245 5.58914 44.22 6.42029 43.4784 7.36858C43.4419 7.57425 45.93 9.78622 46.2454 10.2135Z" fill="white"/>
<path d="M26.5586 28.3931V46.1356C26.5586 46.6132 26.1717 47.0001 25.6946 47.0001H15.2109C14.7339 47.0001 14.3469 46.6132 14.3469 46.1356V28.3931C14.3469 27.9155 14.7339 27.5286 15.2109 27.5286H25.6946C26.1717 27.5286 26.5586 27.9155 26.5586 28.3931Z" fill="white"/>
<path d="M12.2117 35.9727V46.3298C12.2117 46.6997 11.9122 46.9998 11.5422 46.9998H0.670007C0.300019 46.9998 0 46.6997 0 46.3298V35.9727C0 35.6028 0.300019 35.3027 0.670007 35.3027H11.5422C11.9122 35.3027 12.2117 35.6028 12.2117 35.9727Z" fill="white"/>
</svg>
