<svg width="10" height="10" viewBox="0 0 10 10" fill="none" xmlns="http://www.w3.org/2000/svg">
<path d="M9.0324 6.58694V8.74415C9.03394 8.90275 9.00384 9.05983 8.94417 9.20457C8.8845 9.34932 8.79668 9.4783 8.68674 9.58263C8.57681 9.68696 8.44738 9.76417 8.30736 9.80894C8.16734 9.85371 8.02005 9.86498 7.87564 9.84197C5.87376 9.56253 4.01436 8.56724 2.59039 7.01292C1.16643 5.45859 0.258854 3.43361 0.0106793 1.25702C-0.0104244 1.10055 -0.000171336 0.940979 0.0407371 0.789217C0.0816456 0.637455 0.152244 0.497089 0.2477 0.377723C0.343156 0.258357 0.461217 0.16281 0.593804 0.0976196C0.726391 0.0324297 0.870374 -0.000863894 1.0159 1.70359e-05H2.97077C3.09565 -0.000806177 3.21638 0.048665 3.30966 0.138883C3.40295 0.2291 3.46217 0.353669 3.47591 0.488547C3.52603 1.20793 3.69725 1.91121 3.98104 2.56343C4.02971 2.68695 4.03499 2.82557 3.99589 2.95304C3.95679 3.08051 3.87602 3.18797 3.76889 3.25505L3.33447 3.52402C3.27185 3.56144 3.21726 3.61288 3.17429 3.67493C3.13131 3.73697 3.10095 3.80822 3.08519 3.88397C3.06944 3.95971 3.06865 4.03823 3.08289 4.11433C3.09712 4.19043 3.12606 4.26238 3.16778 4.32543C3.66752 5.1209 4.29969 5.80785 5.03172 6.35091C5.08975 6.39624 5.15596 6.42768 5.22599 6.44315C5.29602 6.45862 5.36827 6.45776 5.43798 6.44064C5.50768 6.42352 5.57325 6.39053 5.63035 6.34383C5.68745 6.29714 5.73478 6.23781 5.76922 6.16977L6.01674 5.6977C6.08216 5.57976 6.18599 5.49285 6.30763 5.45421C6.42927 5.41558 6.55983 5.42803 6.67341 5.48912C7.27362 5.7975 7.92081 5.98356 8.58283 6.03803C8.70695 6.05295 8.82158 6.11731 8.9046 6.21868C8.98763 6.32005 9.03315 6.45124 9.0324 6.58694Z" fill="#E00E0E"/>
</svg>
