<svg width="48" height="48" viewBox="0 0 48 48" fill="none" xmlns="http://www.w3.org/2000/svg">
<path d="M36.801 4.76772V8.0101H41.562V6.61406C41.562 5.73729 42.7577 4.8519 43.5842 4.76874C45.3696 4.58922 47.7656 4.57908 47.9436 6.88028C48.1232 9.19822 47.802 11.7459 47.9401 14.0892C47.6295 16.1429 45.3408 16.1941 43.6843 16.0141C42.8432 15.9228 41.562 15.1079 41.562 14.1789V12.7829H36.801V16.0699L39.1368 25.2559V34.3974H41.562V33.0013C41.562 32.9704 41.7542 32.5069 41.7952 32.4243C42.0648 31.8766 42.7051 31.337 43.3217 31.2529C43.9033 31.1738 45.5988 31.1732 46.1804 31.2529C47.063 31.373 47.8409 32.2113 47.9401 33.0911C47.801 35.4334 48.1242 37.9835 47.9436 40.3C47.8819 41.0895 47.5278 41.7508 46.8197 42.1453C46.1243 42.5332 43.6793 42.5287 42.9373 42.2487C42.3845 42.0403 41.5615 41.1656 41.5615 40.5662V39.1702H39.2708L39.1363 39.305V43.0875L39.285 43.2082C39.9056 43.2279 40.6375 43.1123 40.7472 43.9039C40.8322 44.5165 40.8367 46.7989 40.7315 47.3887C40.6592 47.7949 40.4154 48.0088 39.9936 47.9997L7.83545 47.9901C7.52388 47.9414 7.29982 47.7152 7.25177 47.4049C7.16224 46.8283 7.1673 44.3968 7.26795 43.8288C7.42323 42.9485 8.37058 43.4115 8.86372 43.0875V39.305L8.72918 39.1702H6.43846V40.5662C6.43846 41.1661 5.61554 42.0403 5.06271 42.2487C4.32071 42.5281 1.87572 42.5332 1.18026 42.1453C0.472663 41.7503 0.118104 41.0895 0.0563975 40.3C-0.12417 37.983 0.19903 35.4334 0.059938 33.0911C0.15705 32.225 0.953164 31.371 1.81958 31.2529C2.38961 31.1753 4.19781 31.1727 4.75468 31.2666C5.34848 31.3664 5.94127 31.8964 6.20478 32.4243C6.24525 32.5054 6.43795 32.9699 6.43795 33.0013V34.3974H8.86322V25.2559L11.199 16.0699V12.7829H6.43795V14.1789C6.43795 14.4102 5.95948 15.2134 5.76373 15.3944C4.9661 16.1328 3.38096 16.1105 2.34763 16.0288C1.18077 15.9365 0.247586 15.2961 0.059938 14.0897C0.198019 11.7464 -0.123158 9.19873 0.0563975 6.88079C0.234436 4.57959 2.63036 4.58973 4.4158 4.76924C5.24226 4.85241 6.43795 5.7378 6.43795 6.61457V8.0106H11.199V4.76823H9.35737C9.16973 4.76823 8.90014 4.37928 8.86878 4.17746C8.76914 3.537 8.78381 1.33873 8.8617 0.668353C8.89761 0.359024 9.02052 0.154665 9.30831 0.0349898L38.547 0C38.982 0.0877277 39.1039 0.346347 39.1403 0.756081C39.2056 1.48731 39.2374 3.49389 39.1307 4.17746C39.0994 4.37928 38.8293 4.76823 38.6421 4.76823H36.8005L36.801 4.76772ZM37.6098 1.61561H10.3912V3.14653H37.6093V1.61561H37.6098ZM14.4335 4.76772H12.8165V16.2504L10.3912 25.7067V43.2239H12.0082V26.157L14.4335 16.7905V4.76721V4.76772ZM31.9505 4.76772H16.0505V8.0101H31.9505V4.76772ZM35.184 4.76772H33.567V16.791L35.9923 26.1576V43.2244H37.6093V25.7073L35.184 16.2509V4.76823V4.76772ZM1.67796 12.7834C1.73107 13.2438 1.47767 14.1845 2.03201 14.3645C2.26721 14.4411 4.05214 14.4548 4.32577 14.402C4.57867 14.3539 4.87455 14.0035 4.82752 13.7342C4.66819 11.5846 5.02022 9.17743 4.826 7.0598C4.80526 6.83465 4.8002 6.62217 4.58777 6.48779C4.34398 6.33313 2.26164 6.33211 1.97031 6.45635C1.90405 6.48475 1.67796 6.66883 1.67796 6.70331V8.00908H3.20494V9.54001H1.67796V11.1612H3.20494V12.7824H1.67796V12.7834ZM46.323 8.0101V6.70432C46.323 6.66984 46.097 6.48576 46.0307 6.45737C45.7389 6.33262 43.657 6.33414 43.4132 6.48881C43.2008 6.62319 43.1957 6.83566 43.175 7.06081C42.9808 9.17845 43.3328 11.5856 43.1735 13.7352C43.1259 14.0045 43.4218 14.3549 43.6752 14.4031C43.9494 14.4553 45.7338 14.4421 45.969 14.3655C46.5233 14.185 46.2699 13.2449 46.323 12.7844H44.7961V11.1632H46.323V9.54203H44.7961V8.01111H46.323V8.0101ZM8.05597 11.1622V9.67641L7.92144 9.54153H6.43947V11.1627H8.05648L8.05597 11.1622ZM11.2 9.54102H9.718L9.58346 9.67591V11.1617H11.2005V9.54051L11.2 9.54102ZM31.9505 9.54102H16.0505V11.1622H31.9505V9.54102ZM38.4181 11.1622V9.67641L38.2835 9.54153H36.8015V11.1627H38.4186L38.4181 11.1622ZM41.562 9.54102H40.0801L39.9455 9.67591V11.1617H41.5625V9.54051L41.562 9.54102ZM21.6203 12.7834H16.051V16.8812L14.0754 24.761L20.7973 21.1449C21.0664 20.0704 20.1641 17.8366 21.6203 17.5567V12.7834ZM24.7642 12.7834H23.2373V17.5567H24.7642V12.7834ZM31.9505 12.7834H26.3813V17.5567C26.7029 17.6216 27.0929 17.8123 27.1703 18.1612C27.2886 18.6936 27.0717 20.935 27.2042 21.1449L33.9261 24.761L31.9505 16.8812V12.7834ZM25.5725 19.1774H22.4285V27.193H25.5725V19.1774ZM20.8115 24.7615V22.9603L13.6252 26.833V28.6342L20.8115 24.7615ZM34.3758 26.8325L27.1895 22.9598V24.761L34.3758 28.6337V26.8325ZM21.6203 28.8142C21.3658 28.8984 20.812 28.4146 20.812 28.229V26.5627L13.6257 30.4354V34.3979H21.6208V28.8142H21.6203ZM34.3758 30.4349L27.1895 26.5622V28.2285C27.1895 28.6824 26.3813 28.7615 26.3813 28.8137V34.3974H34.3763V30.4349H34.3758ZM24.7642 28.8142H23.2373V34.3979H24.7642V28.8142ZM1.67796 39.1712V40.4769C1.67796 40.4962 1.90253 40.7239 1.94906 40.7452C2.13317 40.8294 4.03343 40.8324 4.32223 40.7863C4.73243 40.7209 4.79211 40.4911 4.826 40.1205C5.02022 38.0028 4.66819 35.5956 4.82752 33.4461C4.87304 33.1453 4.58474 32.8568 4.30908 32.7949C4.02533 32.731 2.28542 32.7331 2.03201 32.8157C1.47767 32.9963 1.73107 33.9364 1.67796 34.3969H3.20494V36.018H1.67796V37.6392H3.20494V39.1702H1.67796V39.1712ZM46.323 34.3979C46.2699 33.9374 46.5233 32.9973 45.969 32.8167C45.7156 32.7341 43.9757 32.7321 43.6919 32.796C43.4163 32.8578 43.128 33.1459 43.1735 33.4471C43.3328 35.5966 42.9808 38.0038 43.175 40.1215C43.1957 40.3466 43.2008 40.5591 43.4132 40.6935C43.657 40.8481 45.7394 40.8492 46.0307 40.7249C46.097 40.6965 46.323 40.5124 46.323 40.478V39.1722H44.7961V37.6413H46.323V36.0201H44.7961V34.3989H46.323V34.3979ZM8.86423 36.0191H6.43896V37.6402H8.72969L8.86423 37.5054V36.0196V36.0191ZM34.3758 36.0191H13.6252V37.6402H34.3758V36.0191ZM41.562 36.0191H39.1368V37.5048L39.2713 37.6397H41.562V36.0186V36.0191ZM34.3758 39.1712H13.6252V43.2239H34.3758V39.1712ZM39.1368 44.8451H8.86423V46.376H39.1368V44.8451Z" fill="#E00E0E"/>
</svg>
