<svg width="12" height="8" viewBox="0 0 12 8" fill="none" xmlns="http://www.w3.org/2000/svg">
<path d="M4.61224 4.00874C4.86379 4.27799 5.2204 4.43241 5.59065 4.43241C5.96091 4.43241 6.31752 4.27806 6.56907 4.00874L10.2916 0.0232873C10.2181 0.00817826 10.1421 0 10.0642 0H1.11712C1.0392 0 0.963158 0.00817826 0.889709 0.0232873L4.61224 4.00874Z" fill="#E00E0E"/>
<path d="M11.1828 1.1081C11.1828 0.847646 11.0879 0.611101 10.9356 0.421753L7.88 3.69306L10.9356 6.96561C11.0879 6.77626 11.1828 6.53972 11.1828 6.27926V1.1081Z" fill="#E00E0E"/>
<path d="M7.3719 4.23682L7.1163 4.51051C6.72401 4.93037 6.16789 5.17115 5.59073 5.17115C5.01356 5.17115 4.45744 4.93037 4.06515 4.51051L3.80955 4.23682L0.889709 7.36403C0.963228 7.37914 1.03927 7.38732 1.11719 7.38732H10.0643C10.1422 7.38732 10.2182 7.37914 10.2917 7.36403L7.3719 4.23682Z" fill="#E00E0E"/>
<path d="M0.247278 0.421753C0.0949241 0.61117 0 0.847716 0 1.10817V6.27926C0 6.53972 0.0949241 6.77626 0.247278 6.96561L3.30283 3.69306L0.247278 0.421753Z" fill="#E00E0E"/>
</svg>
