<svg width="11" height="10" viewBox="0 0 11 10" fill="none" xmlns="http://www.w3.org/2000/svg">
<path d="M9.23624 0H1.43845C0.644032 0 0 0.594462 0 1.32779V8.52575C0 9.25907 0.644006 9.85354 1.43845 9.85354H5.28428L5.29084 6.33242H4.29981C4.17102 6.33242 4.06649 6.23629 4.06599 6.1174L4.06124 4.9824C4.06075 4.86287 4.16559 4.76573 4.29509 4.76573H5.28431V3.66903C5.28431 2.39631 6.12638 1.70331 7.35635 1.70331H8.36562C8.49475 1.70331 8.59947 1.79995 8.59947 1.91917V2.87621C8.59947 2.99538 8.49483 3.09199 8.36576 3.09206L7.74637 3.09233C7.07748 3.09233 6.94796 3.38573 6.94796 3.8163V4.76575H8.41775C8.55779 4.76575 8.66645 4.87863 8.64995 5.00701L8.50421 6.14202C8.49026 6.25063 8.39048 6.33246 8.27201 6.33246H6.95451L6.94796 9.85359H9.23629C10.0307 9.85359 10.6747 9.25912 10.6747 8.52582V1.32779C10.6747 0.594462 10.0307 0 9.23624 0Z" fill="#E00E0E"/>
</svg>
