<svg width="48" height="48" viewBox="0 0 48 48" fill="none" xmlns="http://www.w3.org/2000/svg">
<path d="M7.70253 32.7597C8.07295 32.6913 8.44979 32.726 8.73255 32.9906L11.1742 36.6414L15.3606 37.8162C16.0672 38.2193 16.1544 38.8121 15.7209 39.477C15.0148 40.5594 13.8207 41.5985 13.1199 42.728L13.3241 47.1533C13.206 47.7145 12.6789 48.1004 12.1081 47.977L8.01041 46.4648L3.84382 47.9957C2.53477 48.0058 2.66573 46.9159 2.68872 45.941C2.71437 44.8484 2.95865 43.7425 2.81433 42.6456L0.216022 39.3952C-0.20144 38.8302 0.0182487 38.1797 0.599808 37.8408L4.84284 36.6414C5.67776 35.622 6.29941 34.1414 7.12257 33.1531C7.29789 32.9425 7.41602 32.8121 7.70253 32.7591V32.7597Z" fill="#E00E0E"/>
<path d="M0.278071 21.7195C0.869252 21.1102 3.93206 20.7761 4.82311 20.3148L7.15736 16.7795C7.5358 16.2626 8.35522 16.2241 8.77963 16.6972L11.1727 20.3153L15.5189 21.5747C15.9305 21.8916 16.1517 22.401 15.8615 22.8843L13.1002 26.3806L13.3321 30.591C13.3076 31.1271 13.0253 31.52 12.4839 31.6173C11.5773 31.7798 9.06881 30.2601 8.00832 30.1388C7.64752 30.2163 7.29794 30.3435 6.95103 30.4643C6.09206 30.7636 4.18703 31.7284 3.38257 31.598C2.52199 31.4585 2.67005 30.1746 2.68876 29.5321C2.71976 28.4588 2.9448 27.3785 2.83415 26.2982L0.138027 22.9019C-0.0837993 22.5518 -0.000948706 22.0082 0.278606 21.7195H0.278071Z" fill="#E00E0E"/>
<path d="M15.7391 5.39161C16.0314 5.69842 16.0737 6.26074 15.8347 6.61031L13.1017 10.0537L13.3316 14.3427C13.2102 15.037 12.6479 15.4492 11.945 15.238L7.99491 13.7521L4.00952 15.2557C2.52729 15.4518 2.65985 14.2716 2.68872 13.2047C2.71811 12.1319 2.93727 11.0506 2.83304 9.97192L0.108047 6.52319C-0.170973 5.85557 0.120341 5.35098 0.754818 5.09708C1.96978 4.61014 3.57335 4.45887 4.82466 3.98849C5.6537 2.94457 6.30048 1.43989 7.15785 0.452096C7.55927 -0.0102652 7.93344 -0.130532 8.51232 0.149557C9.57388 1.25548 10.2287 2.76283 11.1871 3.97352C12.4261 4.44337 13.9051 4.6235 15.135 5.06181C15.2959 5.119 15.6289 5.27668 15.7391 5.39214V5.39161Z" fill="#E00E0E"/>
<path d="M47.9354 42.9753H19.9906V45.006H47.9354V42.9753Z" fill="#E00E0E"/>
<path d="M47.9354 9.99438V12.0256H20.1125L19.9906 11.9037V9.99438H47.9354Z" fill="#E00E0E"/>
<path d="M47.9354 25.9973V28.0285H20.1125L19.9906 27.9066V25.9973H47.9354Z" fill="#E00E0E"/>
<path d="M19.9906 6.98865V4.95801H36.8467L36.9686 5.07988V6.86678L36.8467 6.98865H19.9906Z" fill="#E00E0E"/>
<path d="M36.9686 22.9918H19.9906V21.0831L20.1125 20.9612H36.8467L36.9686 21.0831V22.9918Z" fill="#E00E0E"/>
<path d="M36.9686 38.0205H19.9906V39.9699H36.9686V38.0205Z" fill="#E00E0E"/>
</svg>
