<svg width="90" height="40" viewBox="0 0 90 40" fill="none" xmlns="http://www.w3.org/2000/svg">
<mask id="mask0_2332_477" style="mask-type:luminance" maskUnits="userSpaceOnUse" x="24" y="7" width="45" height="28">
<path d="M24.1308 21.1806C24.1308 28.581 34.0111 34.8712 46.1978 34.8712C58.3845 34.8712 68.2667 28.581 68.2667 21.1806C68.2667 13.7801 58.3863 7.51794 46.1978 7.51794C34.0093 7.51794 24.1308 13.7801 24.1308 21.1806Z" fill="white"/>
</mask>
<g mask="url(#mask0_2332_477)">
<path d="M68.2667 7.52014H24.1308V34.8734H68.2667V7.52014Z" fill="url(#paint0_linear_2332_477)"/>
</g>
<mask id="mask1_2332_477" style="mask-type:luminance" maskUnits="userSpaceOnUse" x="23" y="7" width="44" height="28">
<path d="M30.0385 26.829C29.4768 25.5433 30.1038 25.965 32.9102 25.965H57.1977C59.9911 25.965 60.9315 26.2505 60.6162 27.0305C59.185 30.574 52.1017 32.6489 44.8636 32.6489C37.6255 32.6489 31.2831 29.6821 30.0385 26.829ZM29.962 15.7656C31.3932 12.2203 37.7412 9.28884 44.9812 9.28884C52.2211 9.28884 58.5617 12.0542 59.8063 14.9073C60.3661 16.1929 59.741 16.3926 56.9346 16.3926H32.6471C31.8634 16.3926 31.2831 16.4057 30.8614 16.4057C29.781 16.4057 29.7362 16.3273 29.9638 15.7656M23.7166 20.9157C23.7166 28.1482 33.2405 34.0522 44.9868 34.0522C56.7331 34.0522 66.257 28.1482 66.257 20.9157C66.257 13.6832 56.7331 7.55908 44.9868 7.55908C33.2405 7.55908 23.7166 13.6851 23.7166 20.9157Z" fill="white"/>
</mask>
<g mask="url(#mask1_2332_477)">
<path d="M66.257 7.55908H23.7166V34.0522H66.257V7.55908Z" fill="url(#paint1_radial_2332_477)"/>
</g>
<mask id="mask2_2332_477" style="mask-type:luminance" maskUnits="userSpaceOnUse" x="23" y="7" width="44" height="28">
<path d="M29.8575 26.896C29.2902 25.5936 29.9228 26.006 32.7646 26.006H57.3451C60.1721 26.006 60.381 25.8679 60.062 26.6553C58.614 30.2417 52.1894 32.7869 44.8617 32.7869C37.5341 32.7869 31.117 29.7827 29.8575 26.8942M29.7791 15.7058C31.2271 12.1175 37.6516 9.15437 44.9793 9.15437C52.307 9.15437 58.7241 11.9571 59.9817 14.8456C60.549 16.1462 59.9164 16.357 57.0764 16.357H32.4941C31.757 16.357 31.1991 16.3664 30.7811 16.3664C29.5962 16.3664 29.5421 16.2898 29.7772 15.7077M23.459 20.9175C23.459 28.2377 33.0968 34.2088 44.9868 34.2088C56.8767 34.2088 66.5145 28.2377 66.5145 20.9175C66.5145 13.5972 56.8749 7.40222 44.9868 7.40222C33.0987 7.40222 23.459 13.5991 23.459 20.9175Z" fill="white"/>
</mask>
<g mask="url(#mask2_2332_477)">
<path d="M66.5145 7.40222H23.459V34.2088H66.5145V7.40222Z" fill="url(#paint2_radial_2332_477)"/>
</g>
<g style="mix-blend-mode:multiply">
<mask id="mask3_2332_477" style="mask-type:luminance" maskUnits="userSpaceOnUse" x="24" y="20" width="19" height="19">
<path d="M42.8334 20.8672H24.8958V38.8048H42.8334V20.8672Z" fill="white"/>
</mask>
<g mask="url(#mask3_2332_477)">
<mask id="mask4_2332_477" style="mask-type:luminance" maskUnits="userSpaceOnUse" x="28" y="26" width="12" height="8">
<path d="M29.488 26.4128C28.8181 26.4128 28.4636 26.8159 28.4598 27.3514V27.3701C28.4598 27.4895 28.4785 27.6145 28.514 27.7414C29.2305 30.3612 34.2649 32.5575 37.9129 33.2572L39.4094 32.0873C32.3056 30.5012 30.1877 27.6462 29.8873 26.4128H29.4861H29.488Z" fill="white"/>
</mask>
<g mask="url(#mask4_2332_477)">
<mask id="mask5_2332_477" style="mask-type:luminance" maskUnits="userSpaceOnUse" x="24" y="20" width="19" height="19">
<path d="M42.8334 20.8672H24.8958V38.8048H42.8334V20.8672Z" fill="white"/>
</mask>
<g mask="url(#mask5_2332_477)">
<mask id="mask6_2332_477" style="mask-type:luminance" maskUnits="userSpaceOnUse" x="24" y="20" width="19" height="19">
<path d="M33.8245 20.8682L24.8942 29.8611L33.9016 38.8059L42.8319 29.813L33.8245 20.8682Z" fill="white"/>
</mask>
<g mask="url(#mask6_2332_477)">
<path d="M33.8011 11.8986L15.926 29.8989L33.9263 47.774L51.8014 29.7737L33.8011 11.8986Z" fill="url(#paint3_linear_2332_477)"/>
</g>
</g>
</g>
</g>
</g>
<g style="mix-blend-mode:multiply">
<mask id="mask7_2332_477" style="mask-type:luminance" maskUnits="userSpaceOnUse" x="45" y="20" width="21" height="20">
<path d="M65.1262 20.3223H45.7611V39.6873H65.1262V20.3223Z" fill="white"/>
</mask>
<g mask="url(#mask7_2332_477)">
<mask id="mask8_2332_477" style="mask-type:luminance" maskUnits="userSpaceOnUse" x="49" y="26" width="13" height="8">
<path d="M49.2916 32.3859L50.2525 33.5372C56.4047 32.6471 60.2989 29.9228 61.3364 27.9337C61.5958 27.4355 61.5697 27.0567 61.4017 26.8328C61.1554 26.6088 60.7822 26.4745 60.131 26.4745C59.6813 27.6836 57.1137 31.4137 49.2916 32.3878" fill="white"/>
</mask>
<g mask="url(#mask8_2332_477)">
<mask id="mask9_2332_477" style="mask-type:luminance" maskUnits="userSpaceOnUse" x="45" y="20" width="21" height="20">
<path d="M65.1262 20.3223H45.7611V39.6873H65.1262V20.3223Z" fill="white"/>
</mask>
<g mask="url(#mask9_2332_477)">
<mask id="mask10_2332_477" style="mask-type:luminance" maskUnits="userSpaceOnUse" x="45" y="20" width="21" height="20">
<path d="M55.4855 20.3224L45.7604 29.9799L55.4008 39.6877L65.1258 30.0303L55.4855 20.3224Z" fill="white"/>
</mask>
<g mask="url(#mask10_2332_477)">
<path d="M55.5114 10.6396L36.0785 29.9374L55.3762 49.3703L74.8092 30.0726L55.5114 10.6396Z" fill="url(#paint4_linear_2332_477)"/>
</g>
</g>
</g>
</g>
</g>
<g style="mix-blend-mode:multiply">
<mask id="mask11_2332_477" style="mask-type:luminance" maskUnits="userSpaceOnUse" x="23" y="2" width="20" height="20">
<path d="M42.5666 2.84741H23.7221V21.6919H42.5666V2.84741Z" fill="white"/>
</mask>
<g mask="url(#mask11_2332_477)">
<mask id="mask12_2332_477" style="mask-type:luminance" maskUnits="userSpaceOnUse" x="28" y="8" width="11" height="8">
<path d="M28.3572 14.5377C28.025 15.4801 28.9841 15.898 29.5197 15.898H30.434C27.3514 14.4575 32.2272 9.97917 38.9372 8.6394C33.9103 9.22532 29.2846 11.9067 28.3572 14.5377Z" fill="white"/>
</mask>
<g mask="url(#mask12_2332_477)">
<mask id="mask13_2332_477" style="mask-type:luminance" maskUnits="userSpaceOnUse" x="23" y="2" width="20" height="20">
<path d="M42.5666 2.84741H23.7221V21.6919H42.5666V2.84741Z" fill="white"/>
</mask>
<g mask="url(#mask13_2332_477)">
<mask id="mask14_2332_477" style="mask-type:luminance" maskUnits="userSpaceOnUse" x="23" y="2" width="20" height="20">
<path d="M23.7221 12.2445L33.1042 21.6919L42.5666 12.2948L33.1845 2.84741L23.7221 12.2445Z" fill="white"/>
</mask>
<g mask="url(#mask14_2332_477)">
<path d="M33.21 -6.57537L14.3001 12.203L33.0785 31.1129L51.9884 12.3346L33.21 -6.57537Z" fill="url(#paint5_linear_2332_477)"/>
</g>
</g>
</g>
</g>
</g>
<g style="mix-blend-mode:multiply">
<mask id="mask15_2332_477" style="mask-type:luminance" maskUnits="userSpaceOnUse" x="46" y="2" width="20" height="20">
<path d="M65.4863 2.44446H46.0428V21.8879H65.4863V2.44446Z" fill="white"/>
</mask>
<g mask="url(#mask15_2332_477)">
<mask id="mask16_2332_477" style="mask-type:luminance" maskUnits="userSpaceOnUse" x="49" y="8" width="13" height="8">
<path d="M60.6553 13.8026C61.286 14.8476 60.911 15.8682 59.3622 15.8981C59.4294 15.8981 59.4984 15.9 59.5675 15.9H59.7056C60.6516 15.8944 61.7171 15.7581 61.5379 14.6964C61.0864 12.015 54.9622 9.12088 49.7879 8.42114C53.0869 9.07983 59.017 11.0895 60.6553 13.8026Z" fill="white"/>
</mask>
<g mask="url(#mask16_2332_477)">
<mask id="mask17_2332_477" style="mask-type:luminance" maskUnits="userSpaceOnUse" x="46" y="2" width="20" height="20">
<path d="M65.4863 2.44446H46.0428V21.8879H65.4863V2.44446Z" fill="white"/>
</mask>
<g mask="url(#mask17_2332_477)">
<mask id="mask18_2332_477" style="mask-type:luminance" maskUnits="userSpaceOnUse" x="46" y="2" width="20" height="20">
<path d="M55.7248 2.44506L46.0437 12.194L55.8072 21.8895L65.4883 12.1406L55.7248 2.44506Z" fill="white"/>
</mask>
<g mask="url(#mask18_2332_477)">
<path d="M55.6974 -7.27788L36.3208 12.2345L55.8332 31.6111L75.2098 12.0987L55.6974 -7.27788Z" fill="url(#paint6_linear_2332_477)"/>
</g>
</g>
</g>
</g>
</g>
<g style="mix-blend-mode:multiply">
<mask id="mask19_2332_477" style="mask-type:luminance" maskUnits="userSpaceOnUse" x="41" y="0" width="25" height="24">
<path d="M65.6114 0H41.6299V23.9815H65.6114V0Z" fill="white"/>
</mask>
<g mask="url(#mask19_2332_477)">
<mask id="mask20_2332_477" style="mask-type:luminance" maskUnits="userSpaceOnUse" x="45" y="8" width="17" height="8">
<path d="M59.2503 12.8472C60.396 13.9631 60.5602 15.6219 59.519 15.8981C60.6852 15.8626 61.704 15.6256 61.5398 14.6964C61.0005 11.666 53.4434 8.08337 45.5372 8.08337C53.1243 8.57972 57.653 11.2947 59.2503 12.8472Z" fill="white"/>
</mask>
<g mask="url(#mask20_2332_477)">
<mask id="mask21_2332_477" style="mask-type:luminance" maskUnits="userSpaceOnUse" x="41" y="0" width="25" height="24">
<path d="M65.6114 0H41.6299V23.9815H65.6114V0Z" fill="white"/>
</mask>
<g mask="url(#mask21_2332_477)">
<mask id="mask22_2332_477" style="mask-type:luminance" maskUnits="userSpaceOnUse" x="41" y="-1" width="25" height="25">
<path d="M53.5648 -0.000976194L41.6301 12.0173L53.6776 23.981L65.6123 11.9626L53.5648 -0.000976194Z" fill="white"/>
</mask>
<g mask="url(#mask22_2332_477)">
<path d="M53.5375 -11.9925L29.6392 12.0732L53.705 35.9716L77.6033 11.9058L53.5375 -11.9925Z" fill="url(#paint7_linear_2332_477)"/>
</g>
</g>
</g>
</g>
</g>
<path d="M48.1664 5.64453C51.6688 5.6464 55.1507 6.09237 58.6084 6.60924C62.0679 7.13918 65.5087 7.77547 68.9403 8.46028C72.368 9.15816 75.7902 9.88775 79.2031 10.6565L84.3196 11.819L89.4268 13.0282L79.19 10.7162C75.7753 9.95866 72.3513 9.23839 68.9216 8.54985C65.4938 7.85571 62.0548 7.21008 58.599 6.66895C55.1432 6.14834 51.6669 5.68185 48.1664 5.64453Z" fill="white"/>
<mask id="mask23_2332_477" style="mask-type:luminance" maskUnits="userSpaceOnUse" x="0" y="5" width="90" height="31">
<path d="M28.6744 28.2844C27.9131 27.1219 28.6128 26.4595 29.6466 26.4595H60.3362C61.37 26.4595 62.0697 27.1219 61.3084 28.2844C59.2148 31.4845 53.3556 34.1099 45.0371 34.1099C45.0222 34.1099 45.0073 34.1099 44.9923 34.1099C44.9774 34.1099 44.9625 34.1099 44.9476 34.1099C36.629 34.1099 30.7699 31.4845 28.6763 28.2844M28.3814 14.5154C29.947 10.942 36.1793 8.38938 43.5649 8.07589C44.0351 8.05537 44.5109 8.04604 44.9905 8.04604C45.47 8.04604 45.9458 8.05537 46.4161 8.07589C53.8016 8.38751 60.0339 10.942 61.5976 14.5154C61.9745 15.3756 61.342 16.1145 59.435 16.1145H30.546C28.6371 16.1145 28.0064 15.3737 28.3814 14.5154ZM40.8237 5.7229C34.8358 5.84419 25.2746 7.20822 0.645628 13.0021C0.61204 13.0095 0.585917 13.0207 0.556062 13.0301C0.378794 13.0748 0.251906 13.1345 0.166071 13.2055C0.119422 13.2428 0.0858361 13.282 0.0597125 13.323C0.0373208 13.3603 0.0205281 13.3995 0.0111982 13.4406C0.0111982 13.4499 0.00933146 13.4574 0.00746548 13.4667C0.00373354 13.4947 0 13.5208 0 13.5469V13.5637C0 13.588 0.00933123 13.6104 0.0130632 13.6346C0.0186611 13.6626 0.0205274 13.6925 0.0279913 13.7205C0.0746406 13.8735 0.164206 14.0004 0.201525 14.0507C0.208989 14.0619 0.222051 14.0787 0.222051 14.0806L7.01419 20.4958C7.30902 20.8242 7.70273 21.0425 8.13191 21.1153C8.13191 21.1153 16.568 23.7463 19.6375 25.5657L25.3268 29.1427L25.7504 29.4096C30.003 33.1602 37.0265 35.6177 44.983 35.64C52.9414 35.6158 59.9649 33.1583 64.2175 29.4096L64.6392 29.1427L70.3285 25.5657C73.398 23.7463 81.836 21.1153 81.836 21.1153C82.2651 21.0425 82.6589 20.8242 82.9537 20.4958L89.7458 14.0806C89.7458 14.0806 89.7589 14.0601 89.7682 14.0489C89.8055 13.9966 89.8951 13.8716 89.9417 13.7186C89.9492 13.6906 89.9511 13.6626 89.9567 13.6328C89.9604 13.6104 89.9679 13.588 89.9697 13.5637V13.5469C89.9697 13.5208 89.9679 13.4928 89.9641 13.4667C89.9641 13.4574 89.9623 13.448 89.9604 13.4406C89.9511 13.4014 89.9343 13.3622 89.9119 13.323C89.8858 13.282 89.8522 13.2428 89.8055 13.2055C89.7197 13.1345 89.5928 13.0748 89.4155 13.0301C89.3838 13.0207 89.3596 13.0095 89.326 13.0021C64.697 7.20822 55.1376 5.84419 49.1497 5.7229C47.7614 5.67066 46.3713 5.64453 44.983 5.64453C43.5947 5.64453 42.2064 5.67066 40.8163 5.7229" fill="white"/>
</mask>
<g mask="url(#mask23_2332_477)">
<path d="M17.7522 -30.1596L-11.9338 29.7212L72.23 71.4456L101.916 11.5648L17.7522 -30.1596Z" fill="url(#paint8_radial_2332_477)"/>
</g>
<path d="M49.6554 5.73596C53.0179 5.8162 56.3598 6.24351 59.6794 6.76225C63.0008 7.28285 66.3036 7.90795 69.5989 8.57224C72.8905 9.24772 76.1765 9.95866 79.4531 10.7013L84.3681 11.8246L89.2737 12.9871C82.7204 11.4925 76.169 9.98665 69.5803 8.66181C66.2887 7.98819 62.9878 7.35376 59.6701 6.82382C58.0131 6.55326 56.3468 6.32561 54.6786 6.13155C53.0104 5.93375 51.3348 5.79381 49.6554 5.73783" fill="white"/>
<path d="M81.8434 21.1116C82.2726 21.0388 82.6663 20.8205 82.9611 20.4921L89.7514 14.0769L82.9611 21.1788C82.6663 21.5072 82.2726 21.7255 81.8434 21.7983C81.8434 21.7983 73.4073 24.4293 70.336 26.2468L64.223 29.404L70.336 25.562C73.4055 23.7445 81.8415 21.1116 81.8415 21.1116" fill="#4A3B35"/>
<mask id="mask24_2332_477" style="mask-type:luminance" maskUnits="userSpaceOnUse" x="58" y="14" width="32" height="19">
<path d="M70.4199 15.8962C69.1697 16.081 68.0557 16.8759 67.3802 18.0682L65.253 23.0895C64.906 23.9106 64.4768 24.6887 63.9711 25.4164L58.9591 32.6265L70.3695 25.5433C73.439 23.7258 81.8453 21.1098 81.8453 21.1098C82.2763 21.037 82.67 20.8205 82.963 20.4902L89.604 14.2206L70.4199 15.8944V15.8962Z" fill="white"/>
</mask>
<g mask="url(#mask24_2332_477)">
<mask id="mask25_2332_477" style="mask-type:luminance" maskUnits="userSpaceOnUse" x="56" y="9" width="37" height="28">
<path d="M92.1791 9.93262H56.3823V36.9183H92.1791V9.93262Z" fill="white"/>
</mask>
<g mask="url(#mask25_2332_477)">
<mask id="mask26_2332_477" style="mask-type:luminance" maskUnits="userSpaceOnUse" x="56" y="9" width="37" height="28">
<path d="M88.989 9.9304L56.3818 14.5885L59.5714 36.9158L92.1785 32.2577L88.989 9.9304Z" fill="white"/>
</mask>
<g mask="url(#mask26_2332_477)">
<path d="M91.4624 4.9212L52.6043 10.4723L57.098 41.9286L95.9561 36.3775L91.4624 4.9212Z" fill="url(#paint9_linear_2332_477)"/>
</g>
</g>
</g>
<path d="M89.6021 14.2225C87.682 14.4259 85.7638 14.6163 83.8437 14.7973L78.0816 15.3197L72.3139 15.7993L70.8715 15.9112C70.3863 15.9299 69.9198 16.0195 69.4701 16.1911C68.5763 16.5251 67.7945 17.1932 67.3802 18.0683C67.7721 17.182 68.5427 16.4841 69.4421 16.1184C69.89 15.9299 70.3807 15.831 70.8584 15.8049L72.299 15.6668L78.0629 15.1387L83.8307 14.6536C85.7545 14.4987 87.6783 14.355 89.6021 14.2225Z" fill="white"/>
<path d="M40.3255 5.736C38.6462 5.79198 36.9705 5.93192 35.3023 6.12972C33.6323 6.32378 31.9679 6.55143 30.3109 6.82199C26.9932 7.35193 23.6923 7.98823 20.4007 8.65998C13.8119 9.98482 7.26051 11.4925 0.707214 12.9853L5.61286 11.8228L10.5278 10.6995C13.8045 9.95683 17.0905 9.24589 20.382 8.57041C23.6773 7.90612 26.9801 7.28289 30.3015 6.76042C33.6211 6.24168 36.9631 5.81623 40.3255 5.73413" fill="white"/>
<path d="M8.13749 21.1116C7.70645 21.0388 7.31273 20.8205 7.01791 20.4921L0.225769 14.0769L7.01604 21.1788C7.31087 21.5072 7.70459 21.7255 8.13376 21.7983C8.13376 21.7983 16.5698 24.4293 19.6412 26.2468L25.7541 29.404L19.6412 25.562C16.5717 23.7445 8.13563 21.1116 8.13563 21.1116" fill="#4A3B35"/>
<mask id="mask27_2332_477" style="mask-type:luminance" maskUnits="userSpaceOnUse" x="0" y="14" width="32" height="19">
<path d="M7.01791 20.492C7.31274 20.8205 7.70646 21.0388 8.13563 21.1115C8.13563 21.1115 16.54 23.7276 19.6114 25.5451L31.0218 32.6283L26.0098 25.4182C25.5041 24.6905 25.0749 23.9105 24.7279 23.0913L22.6007 18.07C21.9252 16.8777 20.813 16.0828 19.561 15.898L0.378784 14.2242L7.01791 20.4939V20.492Z" fill="white"/>
</mask>
<g mask="url(#mask27_2332_477)">
<mask id="mask28_2332_477" style="mask-type:luminance" maskUnits="userSpaceOnUse" x="-3" y="9" width="37" height="28">
<path d="M33.5987 9.93262H-2.19812V36.9183H33.5987V9.93262Z" fill="white"/>
</mask>
<g mask="url(#mask28_2332_477)">
<mask id="mask29_2332_477" style="mask-type:luminance" maskUnits="userSpaceOnUse" x="-3" y="9" width="37" height="28">
<path d="M0.990787 9.93145L-2.19879 32.2588L30.4083 36.9169L33.5979 14.5896L0.990787 9.93145Z" fill="white"/>
</mask>
<g mask="url(#mask29_2332_477)">
<path d="M-1.48268 4.92041L-5.97638 36.3767L32.8817 41.9278L37.3754 10.4715L-1.48268 4.92041Z" fill="url(#paint10_linear_2332_477)"/>
</g>
</g>
</g>
<path d="M0.376902 14.2224C2.30072 14.3549 4.22454 14.4986 6.14836 14.6535L11.9161 15.1386L17.6782 15.6667L19.1187 15.8048C19.5983 15.8309 20.089 15.9298 20.535 16.1182C21.4363 16.484 22.2051 17.1818 22.5969 18.0682C22.1808 17.1912 21.3989 16.525 20.5051 16.191C20.0554 16.0193 19.589 15.9298 19.1038 15.9111L17.6614 15.7992L11.8937 15.3196L6.13156 14.7971C4.21147 14.6161 2.29139 14.4258 0.373169 14.2224" fill="white"/>
<mask id="mask30_2332_477" style="mask-type:luminance" maskUnits="userSpaceOnUse" x="26" y="18" width="38" height="6">
<path d="M39.1406 19.6748H41.3742C41.7511 19.6748 41.8295 19.8987 41.8295 20.2626C41.8295 20.6265 41.7362 20.8504 41.4283 20.8504H39.1406V19.6748ZM37.9613 18.8183L37.9147 23.8639C37.9147 23.9237 37.9706 23.974 38.049 23.974H39.0361C39.1051 23.974 39.1406 23.9106 39.1406 23.8509V22.0577C39.1406 21.9457 39.1816 21.8991 39.2805 21.8991H40.5419L41.9116 23.961C41.9246 23.9815 41.947 23.9946 41.9731 23.9946H43.2607C43.2831 23.9946 43.2961 23.9703 43.2831 23.9498L41.878 21.8375C41.9619 21.8244 42.2157 21.789 42.3669 21.6975C42.7606 21.4587 43.0218 21.0071 43.0218 20.2645C43.0218 19.5815 42.7438 19.0273 42.3575 18.8221C42.0776 18.6728 41.5682 18.6336 40.8312 18.628H38.1255C38.021 18.628 37.9594 18.6821 37.9594 18.8183M32.6097 21.2926C32.6097 20.2626 32.8336 19.6562 33.5501 19.6562H35.2911C36.0076 19.6562 36.2315 20.2626 36.2315 21.2926C36.2315 22.3226 35.8975 22.9366 35.2911 22.9366H33.5501C32.9437 22.9366 32.6097 22.3226 32.6097 21.2926ZM33.3971 18.6131C32.522 18.6131 31.4173 19.1505 31.4173 21.2292C31.4173 23.3079 32.2589 23.9722 33.1657 23.9722H35.6755C36.5805 23.9722 37.4239 23.3079 37.4239 21.2292C37.4239 19.1505 36.3192 18.6131 35.4441 18.6131H33.3971ZM60.297 19.5909H61.8252C62.5418 19.5909 62.7657 20.2216 62.7657 21.2945C62.7657 22.3674 62.4335 23.0056 61.8252 23.0056H60.297V19.5927V19.5909ZM59.2819 18.6131C59.127 18.6131 59.1046 18.6504 59.1046 18.7698L59.0729 23.8024C59.0729 23.9591 59.1252 23.974 59.2838 23.974H62.2096C63.1146 23.974 63.9692 23.3097 63.9692 21.2311C63.9692 19.1524 62.8534 18.615 61.9782 18.615H59.2819V18.6131ZM57.3208 18.6131C57.1659 18.6131 57.1435 18.6504 57.1435 18.7698V22.095L54.7569 18.8949C54.6076 18.7008 54.4098 18.6 54.1691 18.6H53.5963C53.4675 18.6 53.4246 18.6355 53.4246 18.7661L53.391 23.7632C53.391 23.9591 53.4657 23.9722 53.6243 23.9722H54.4565C54.5871 23.9722 54.617 23.9162 54.617 23.8173V20.5836L56.914 23.571C57.0259 23.7128 57.2293 23.9722 57.6025 23.9722C57.6137 23.9722 57.6268 23.9722 57.6398 23.9722H58.2351C58.3191 23.9722 58.3489 23.9367 58.3489 23.8565V18.753C58.3489 18.6206 58.3284 18.5683 58.1661 18.5683L57.3245 18.6131H57.3208ZM26.5658 18.6075C26.4874 18.6075 26.424 18.6691 26.424 18.7437L26.3699 23.8304C26.3699 23.8994 26.4912 23.9722 26.5807 23.9722H27.4913C27.5529 23.9722 27.6033 23.9237 27.6033 23.8639V22.0204C27.6033 21.9215 27.6462 21.8953 27.7246 21.8953H30.7549C30.8314 21.8953 30.893 21.8767 30.893 21.774V21.1322C30.893 20.981 30.8986 20.8597 30.8016 20.8261L27.6052 20.8485V19.6543H30.9229C31.0012 19.6543 31.0628 19.5927 31.0628 19.5181V18.7661C31.0628 18.6243 31.0217 18.5646 30.8072 18.5646L26.5658 18.6056V18.6075ZM43.5984 18.6467V22.7145C43.5984 23.2892 43.7458 23.974 44.9046 23.974H48.1458C48.2074 23.974 48.2633 23.9516 48.2895 23.8957L50.1629 19.9211L50.9989 21.7031H49.8084L49.2504 22.7462L49.2878 22.7854H51.5083L52.0046 23.8658C52.0307 23.9199 52.0718 23.9759 52.1576 23.9759H53.2996C53.3276 23.9759 53.3462 23.946 53.335 23.9181L50.9989 18.796C50.9223 18.6224 50.872 18.5758 50.6051 18.5758H49.6983C49.4837 18.5758 49.4501 18.615 49.368 18.8053L47.4647 22.9291H45.093C44.9755 22.9291 44.7796 22.9608 44.7796 22.7705V18.6299C44.7796 18.5851 44.7385 18.5683 44.7385 18.5683L43.6003 18.6485L43.5984 18.6467Z" fill="white"/>
</mask>
<g mask="url(#mask30_2332_477)">
<path d="M63.9711 18.5667H26.3699V23.9929H63.9711V18.5667Z" fill="url(#paint11_linear_2332_477)"/>
</g>
<path d="M30.768 18.5329H26.4016C26.3233 18.5329 26.2598 18.5944 26.2598 18.671V23.8061C26.2598 23.8658 26.3102 23.9143 26.3718 23.9143H27.3309C27.3925 23.9143 27.4429 23.8658 27.4429 23.8061V21.9569C27.4429 21.858 27.4858 21.8338 27.5641 21.8338H30.6019C30.6785 21.8338 30.74 21.8151 30.74 21.7106V20.9344C30.74 20.7832 30.7008 20.7832 30.5534 20.7832H27.4429V19.5853H30.7699C30.8483 19.5853 30.9117 19.5237 30.9117 19.4491V18.6728C30.9117 18.5963 30.8483 18.5347 30.7699 18.5347M58.0989 18.5329H57.2648C57.1081 18.5329 57.0876 18.5702 57.0876 18.6896V22.0726L54.6693 18.8314C54.5218 18.6318 54.3241 18.531 54.0815 18.531H53.5068C53.378 18.531 53.3332 18.5665 53.3332 18.6971V23.7053C53.3332 23.8509 53.3668 23.9106 53.5273 23.9106H54.367C54.4976 23.9106 54.5293 23.8546 54.5163 23.7539V20.5108L56.8319 23.5076C56.9439 23.6494 57.1491 23.9106 57.5223 23.9106C57.5335 23.9106 57.5466 23.9106 57.5597 23.9106H58.1549C58.2389 23.9106 58.2706 23.8975 58.2706 23.8173V18.6877C58.2706 18.5441 58.2314 18.531 58.1008 18.531M61.9111 18.5329H59.2092C59.0655 18.5329 59.0319 18.5963 59.0319 18.6896V23.7781C59.0319 23.8957 59.0972 23.9125 59.1532 23.9125H62.1443C63.0531 23.9125 63.8984 23.2463 63.8984 21.162C63.8984 19.0777 62.79 18.5329 61.913 18.5329M61.7581 22.8619H60.2131V19.5853H61.7581C62.4765 19.5853 62.7004 20.1507 62.7004 21.2255C62.7004 22.3003 62.3664 22.8619 61.7581 22.8619ZM42.2549 21.6211C42.6487 21.3822 42.9043 20.9195 42.9043 20.1749C42.9043 19.4901 42.6263 18.9341 42.24 18.7288C41.9583 18.5795 41.447 18.5403 40.7081 18.5347H37.9949C37.8904 18.5347 37.8289 18.5907 37.8289 18.7251V23.8061C37.8289 23.8658 37.8774 23.9143 37.9352 23.9143H38.9055C38.9652 23.9143 39.0119 23.8658 39.0119 23.8061V21.9737C39.0119 21.8618 39.0529 21.8151 39.1518 21.8151H40.417L41.8127 23.9162H43.1767L41.7455 21.7629C41.8967 21.7386 42.1019 21.7144 42.2549 21.6229M41.3052 20.7627H39.01V19.5834H41.2492C41.628 19.5834 41.7063 19.8073 41.7063 20.1731C41.7063 20.5388 41.6131 20.7627 41.3033 20.7627M50.5175 18.5329H49.6069C49.3923 18.5329 49.3456 18.5777 49.2635 18.7699L47.3565 22.8619H44.9774C44.6639 22.8619 44.6639 22.8022 44.6639 22.7033V18.5329H43.4809V22.6492C43.4809 23.2258 43.7085 23.9125 44.7908 23.9125H48.0376C48.101 23.9125 48.1589 23.8901 48.185 23.8341L50.0715 19.8764L50.9019 21.636H49.7076L49.187 22.7201H51.4131L51.9431 23.8341C51.9692 23.8901 52.027 23.9143 52.0886 23.9125H53.2437L50.8869 18.7605C50.8104 18.5851 50.7619 18.5329 50.5193 18.5329M35.3042 18.5385H33.2516C32.3746 18.5385 31.2662 19.0777 31.2662 21.162C31.2662 23.2463 32.1115 23.9125 33.0202 23.9125H35.5374C36.4462 23.9125 37.2915 23.2463 37.2915 21.162C37.2915 19.0777 36.1831 18.5385 35.3061 18.5385M35.1493 22.875H33.4046C32.7963 22.875 32.4623 22.2592 32.4623 21.2273C32.4623 20.1955 32.6862 19.5853 33.4046 19.5853H35.1493C35.8677 19.5853 36.0916 20.1936 36.0916 21.2273C36.0916 22.2611 35.7576 22.875 35.1493 22.875Z" fill="#201512"/>
<mask id="mask31_2332_477" style="mask-type:luminance" maskUnits="userSpaceOnUse" x="28" y="26" width="34" height="3">
<path d="M29.4394 26.3811C29.0047 26.3811 28.5755 26.6088 28.4318 27.0174C28.3441 27.2693 28.2303 27.8086 28.8722 28.6054C28.0717 27.4933 28.499 26.5416 29.4954 26.5416H60.172C61.6107 26.5416 61.8066 27.3962 61.3177 28.2452C62.0585 27.0715 61.3084 26.3793 60.1907 26.3793H29.4394V26.3811Z" fill="white"/>
</mask>
<g mask="url(#mask31_2332_477)">
<path d="M47.4966 9.56117L26.9721 27.3337L42.6376 45.4249L63.1621 27.6523L47.4966 9.56117Z" fill="url(#paint12_linear_2332_477)"/>
</g>
<mask id="mask32_2332_477" style="mask-type:luminance" maskUnits="userSpaceOnUse" x="28" y="14" width="34" height="3">
<path d="M59.726 16.0324H29.669C28.6333 16.0324 28.2359 15.4819 28.2993 14.8456C28.1818 15.536 28.5494 16.1798 29.8369 16.1798H59.9238C61.2991 16.1798 61.8103 15.6629 61.6349 14.8307C61.6424 15.1908 61.7861 16.0324 59.7279 16.0324" fill="white"/>
</mask>
<g mask="url(#mask32_2332_477)">
<path d="M61.8066 14.8307H28.1799V16.1798H61.8066V14.8307Z" fill="url(#paint13_linear_2332_477)"/>
</g>
<defs>
<linearGradient id="paint0_linear_2332_477" x1="24.1071" y1="21.7054" x2="68.2699" y2="21.7054" gradientUnits="userSpaceOnUse">
<stop stop-color="#4C4948"/>
<stop offset="0.22" stop-color="#413E3E"/>
<stop offset="0.59" stop-color="#252323"/>
<stop offset="1"/>
</linearGradient>
<radialGradient id="paint1_radial_2332_477" cx="0" cy="0" r="1" gradientUnits="userSpaceOnUse" gradientTransform="translate(45.1991 20.6549) scale(20.6539 12.7774)">
<stop stop-color="#7D7D7D"/>
<stop offset="0.83" stop-color="#7D7D7D"/>
<stop offset="0.86" stop-color="#767676"/>
<stop offset="0.89" stop-color="#646464"/>
<stop offset="0.93" stop-color="#464646"/>
<stop offset="0.97" stop-color="#1C1C1C"/>
<stop offset="1"/>
</radialGradient>
<radialGradient id="paint2_radial_2332_477" cx="0" cy="0" r="1" gradientUnits="userSpaceOnUse" gradientTransform="translate(45.1362 21.4935) scale(20.9013 12.9329)">
<stop stop-color="#7D7D7D"/>
<stop offset="0.84" stop-color="#7D7D7D"/>
<stop offset="0.86" stop-color="#767676"/>
<stop offset="0.89" stop-color="#646464"/>
<stop offset="0.93" stop-color="#464646"/>
<stop offset="0.97" stop-color="#1C1C1C"/>
<stop offset="1"/>
</radialGradient>
<linearGradient id="paint3_linear_2332_477" x1="30.2123" y1="26.5307" x2="37.9958" y2="34.2601" gradientUnits="userSpaceOnUse">
<stop stop-color="#747374"/>
<stop offset="0.14" stop-color="#747374"/>
<stop offset="0.17" stop-color="#797879"/>
<stop offset="0.57" stop-color="#C1C0C1"/>
<stop offset="0.86" stop-color="#EDEDED"/>
<stop offset="1" stop-color="white"/>
</linearGradient>
<linearGradient id="paint4_linear_2332_477" x1="59.5981" y1="26.4559" x2="50.9637" y2="35.0302" gradientUnits="userSpaceOnUse">
<stop stop-color="#747374"/>
<stop offset="0.14" stop-color="#747374"/>
<stop offset="0.17" stop-color="#797879"/>
<stop offset="0.57" stop-color="#C1C0C1"/>
<stop offset="0.86" stop-color="#EDEDED"/>
<stop offset="1" stop-color="white"/>
</linearGradient>
<linearGradient id="paint5_linear_2332_477" x1="29.644" y1="15.1997" x2="37.9902" y2="6.91158" gradientUnits="userSpaceOnUse">
<stop stop-color="#8B8B8B"/>
<stop offset="0.15" stop-color="#8B8B8B"/>
<stop offset="0.49" stop-color="#BFBFBF"/>
<stop offset="0.83" stop-color="#EDEDED"/>
<stop offset="1" stop-color="white"/>
</linearGradient>
<linearGradient id="paint6_linear_2332_477" x1="59.6648" y1="15.6532" x2="50.659" y2="6.71017" gradientUnits="userSpaceOnUse">
<stop stop-color="#4C4948"/>
<stop offset="0.15" stop-color="#4C4948"/>
<stop offset="0.46" stop-color="#989695"/>
<stop offset="0.71" stop-color="#CFCECE"/>
<stop offset="0.9" stop-color="#F2F1F1"/>
<stop offset="1" stop-color="white"/>
</linearGradient>
<linearGradient id="paint7_linear_2332_477" x1="58.0179" y1="16.921" x2="46.8243" y2="5.80534" gradientUnits="userSpaceOnUse">
<stop stop-color="#8B8B8B"/>
<stop offset="0.15" stop-color="#8B8B8B"/>
<stop offset="0.49" stop-color="#BFBFBF"/>
<stop offset="0.83" stop-color="#EDEDED"/>
<stop offset="1" stop-color="white"/>
</linearGradient>
<radialGradient id="paint8_radial_2332_477" cx="0" cy="0" r="1" gradientUnits="userSpaceOnUse" gradientTransform="translate(31.0253 11.4806) rotate(26.37) scale(60.7436 62.2218)">
<stop stop-color="white"/>
<stop offset="0.13" stop-color="#FBFBFB"/>
<stop offset="0.24" stop-color="#F1F0F0"/>
<stop offset="0.35" stop-color="#DFDEDE"/>
<stop offset="0.45" stop-color="#C6C5C5"/>
<stop offset="0.55" stop-color="#A6A5A4"/>
<stop offset="0.64" stop-color="#7F7D7D"/>
<stop offset="0.74" stop-color="#514F4E"/>
<stop offset="0.82" stop-color="#666464"/>
<stop offset="0.93" stop-color="#7F7F7F"/>
<stop offset="1" stop-color="#898989"/>
</radialGradient>
<linearGradient id="paint9_linear_2332_477" x1="72.8057" y1="15.3317" x2="74.1363" y2="24.6457" gradientUnits="userSpaceOnUse">
<stop/>
<stop offset="0.13" stop-color="#101010"/>
<stop offset="0.4" stop-color="#3C3C3C"/>
<stop offset="0.77" stop-color="#828282"/>
<stop offset="1" stop-color="#B1B1B2"/>
</linearGradient>
<linearGradient id="paint10_linear_2332_477" x1="17.1775" y1="15.3473" x2="15.8548" y2="24.6066" gradientUnits="userSpaceOnUse">
<stop/>
<stop offset="0.13" stop-color="#101010"/>
<stop offset="0.4" stop-color="#3C3C3C"/>
<stop offset="0.77" stop-color="#828282"/>
<stop offset="1" stop-color="#B1B1B2"/>
</linearGradient>
<linearGradient id="paint11_linear_2332_477" x1="26.3669" y1="21.2891" x2="63.9886" y2="21.2891" gradientUnits="userSpaceOnUse">
<stop stop-color="#EFEFEF"/>
<stop offset="0.48" stop-color="white"/>
<stop offset="1" stop-color="#BCBCBC"/>
</linearGradient>
<linearGradient id="paint12_linear_2332_477" x1="38.4163" y1="19.5555" x2="52.5304" y2="35.8551" gradientUnits="userSpaceOnUse">
<stop stop-color="#7D7D7D"/>
<stop offset="0.47" stop-color="#717171"/>
<stop offset="1" stop-color="#6A6969"/>
</linearGradient>
<linearGradient id="paint13_linear_2332_477" x1="28.3669" y1="15.9792" x2="61.776" y2="15.9792" gradientUnits="userSpaceOnUse">
<stop stop-color="#EFEFEF"/>
<stop offset="0.53" stop-color="#F2F2F3"/>
<stop offset="0.64" stop-color="#ECECED"/>
<stop offset="0.78" stop-color="#DBDBDC"/>
<stop offset="0.94" stop-color="#C0C0C1"/>
<stop offset="1" stop-color="#B5B5B6"/>
</linearGradient>
</defs>
</svg>
