<svg width="10" height="10" viewBox="0 0 10 10" fill="none" xmlns="http://www.w3.org/2000/svg">
<path d="M6.82041 0H2.89397C1.29823 0 0 1.29823 0 2.89397V6.82041C0 8.41615 1.29823 9.71438 2.89397 9.71438H6.82041C8.41615 9.71438 9.71438 8.41615 9.71438 6.82041V2.89397C9.71436 1.29823 8.41614 0 6.82041 0ZM8.73712 6.82041C8.73712 7.87897 7.87897 8.73712 6.82041 8.73712H2.89397C1.83541 8.73712 0.977266 7.87897 0.977266 6.82041V2.89397C0.977266 1.83539 1.83541 0.977266 2.89397 0.977266H6.82041C7.87897 0.977266 8.73712 1.83539 8.73712 2.89397V6.82041Z" fill="#E00E0E"/>
<path d="M4.85929 2.34448C3.4739 2.34448 2.3468 3.47158 2.3468 4.85695C2.3468 6.24232 3.4739 7.36943 4.85929 7.36943C6.24467 7.36943 7.37177 6.24234 7.37177 4.85695C7.37177 3.47156 6.24467 2.34448 4.85929 2.34448ZM4.85929 6.39219C4.0114 6.39219 3.32407 5.70485 3.32407 4.85697C3.32407 4.00908 4.01142 3.32175 4.85929 3.32175C5.70717 3.32175 6.39451 4.00908 6.39451 4.85697C6.39451 5.70483 5.70715 6.39219 4.85929 6.39219Z" fill="#E00E0E"/>
<path d="M7.37314 2.96565C7.70563 2.96565 7.97517 2.69611 7.97517 2.36362C7.97517 2.03113 7.70563 1.7616 7.37314 1.7616C7.04065 1.7616 6.77112 2.03113 6.77112 2.36362C6.77112 2.69611 7.04065 2.96565 7.37314 2.96565Z" fill="#E00E0E"/>
</svg>
