<?xml version="1.0" encoding="UTF-8"?>
<svg id="Layer_1" data-name="Layer 1" xmlns="http://www.w3.org/2000/svg" viewBox="0 0 518.22 196.33">
  <defs>
    <style>
      .cls-1 {
        fill: #ee8900;
      }

      .cls-2 {
        fill: #1b252e;
      }

      .cls-3 {
        fill: #2b1c48;
      }

      .cls-4 {
        fill: #5d376e;
      }
    </style>
  </defs>
  <g>
    <g>
      <g>
        <path class="cls-2" d="M233.01,91.42l1.78.67c-3.56,12.55-13.44,20.22-26.11,20.22-16.55,0-29.44-12.11-29.44-28.88s12.77-28.66,29.33-28.66,26.88,11.44,26.88,28.66h-45.1c.44,12.44,9.33,22.77,22.44,22.77,9.11,0,16.33-5.11,20.22-14.78ZM190.35,79.56h34.88c-.44-16.44-6.11-22.8-16.66-22.8s-17.77,7.36-18.22,22.8Z"/>
        <path class="cls-2" d="M109.77,91.42l1.78.67c-3.56,12.55-13.44,20.22-26.11,20.22-16.55,0-29.44-12.11-29.44-28.88s12.77-28.66,29.33-28.66,26.88,11.44,26.88,28.66h-45.1c.44,12.44,9.33,22.77,22.44,22.77,9.11,0,16.33-5.11,20.22-14.78ZM67.12,79.56h34.88c-.44-16.44-6.11-22.8-16.66-22.8s-17.77,7.36-18.22,22.8Z"/>
        <path class="cls-2" d="M307.04,108.74v2.22h-26.02v-2.22l8.22-1.82v-31.72c0-9.33-4.22-14.44-12.22-14.44-10.11,0-15.89,8.22-15.89,19.44v26.73l8.22,1.82v2.22h-26.02v-2.22l7.36-1.82v-46.66l-7.36-1.95v-2.22l17.8-1.64v16.86c2.44-10.22,9.33-16.55,20.33-16.55s18.22,6.78,18.22,20.22v31.95l7.36,1.82Z"/>
        <path class="cls-2" d="M380.26,108.74v2.22h-17.8v-16c-3,10.66-12,17.33-22.99,17.33-14.77,0-25.66-11.11-25.66-28.77s10.89-28.77,25.66-28.77c11,0,20,6.66,22.99,17.22v-27.03l-7.47-2.17v-2l17.8-1.64v67.79l7.47,1.82ZM362.46,83.64v-.44c0-14.11-8.67-23.33-18.88-23.33s-18.66,9.66-18.66,23.66,8,23.66,18.66,23.66,18.88-9.44,18.88-23.55Z"/>
        <polygon class="cls-2" points="48.24 97.58 40.99 107.11 21.25 107.11 21.23 39 3.11 40.77 3.11 42.99 10.47 44.94 10.47 106.92 3.11 108.74 3.11 110.97 50.57 110.97 50.57 97.58 48.24 97.58"/>
      </g>
      <path class="cls-2" d="M153.37,96.97h-17.89c-3.66,0-5.89-1.66-5.89-4.56,0-1.88,1-3.66,2.33-5.33,3.55,1.89,7.89,3,12.77,3,13.44,0,22.55-8.23,22.55-17.67,0-4.1-1.68-7.93-4.61-10.97l11.52-14.48-.48-.56-18.01,10.52c-1.17-.5-2.31-1.01-3.56-1.31-1.21-.29-2.44-.51-3.68-.65s-2.49-.21-3.74-.21c-13.33,0-22.55,8-22.55,17.66,0,5.33,2.89,10.11,7.67,13.44-3.89,2.55-7,5.77-7,10.22,0,5,3,8.22,7.44,9.67-8.21,1.44-12.77,5.33-12.77,11.55,0,8.55,8.33,13.11,24.99,13.11h.22c18.55,0,30.55-7.22,30.55-18.89,0-9.66-6.34-14.55-19.89-14.55ZM144.7,57.09c8.44,0,12.44,6.45,12.44,15.33s-4,15.22-12.44,15.22-12.33-6.55-12.33-15.22,4-15.33,12.33-15.33ZM143.15,128.18h-.22c-11.77,0-18.22-4.56-18.22-11.56,0-7.78,6.66-9.99,15.44-9.99h11.88c8.33,0,12.67,2.89,12.67,9,0,7.33-8.33,12.55-21.55,12.55Z"/>
    </g>
    <g>
      <polygon class="cls-3" points="443.91 39.64 408.31 39.64 443.91 4.04 443.91 39.64"/>
      <polygon class="cls-1" points="443.92 4.03 443.92 39.63 479.51 39.63 479.51 75.23 515.11 75.23 515.11 4.03 443.92 4.03"/>
      <path class="cls-4" d="M479.51,75.23v35.6h-54.33c-9.32,0-16.86-7.54-16.86-16.86v-54.33h35.6v35.6h35.6Z"/>
      <polygon class="cls-3" points="479.51 110.83 479.51 75.23 515.1 75.23 479.51 110.83"/>
    </g>
  </g>
  <g>
    <path class="cls-4" d="M221.62,149.6c0-5.2,2.99-10.24,9.64-10.24,1.32,0,2.99.38,4.33,1.12l.66-.96h1.04v5.97h-1.29c-.27-1.07-.33-1.48-.74-2.41-.52-1.1-1.59-2.68-4.11-2.68-3.15,0-5.48,2.9-5.48,9.01s2.74,8.52,5.7,8.52c3.56,0,5.04-2.41,5.31-4.98h1.26c-.11,3.37-2.68,6.49-6.88,6.49-6.38,0-9.45-4.35-9.45-9.83Z"/>
    <path class="cls-4" d="M239.81,151.98c0-4.27,2.68-7.45,7.23-7.45,4.79,0,7.26,3.51,7.26,7.45,0,4.16-2.85,7.42-7.26,7.42s-7.23-2.96-7.23-7.42ZM250.6,151.98c0-2.85-.6-6.44-3.56-6.44s-3.56,3.18-3.56,6.44c0,2.57.49,6.38,3.56,6.38s3.56-4.08,3.56-6.38Z"/>
    <path class="cls-4" d="M256,158.04h.79c.9,0,1.18-.16,1.18-1.48v-8.96c0-1.34-.27-1.48-1.23-1.48h-.74v-1.04l5.34-.38v1.81c1.07-.99,2.55-1.97,4.63-1.97s3.31.88,3.86,2.3c1.34-1.29,2.88-2.3,5.07-2.3,3.31,0,4.3,2.41,4.3,4.98v7.04c0,1.31.27,1.48,1.18,1.48h.82v1.04h-7.07v-1.04h.6c.85,0,1.12-.16,1.12-1.48v-7.5c0-1.56-.66-2.71-2.16-2.71-1.31,0-2.52.66-3.42,1.4v8.82c0,1.31.27,1.48,1.18,1.48h.6v1.04h-6.85v-1.04h.6c.85,0,1.1-.16,1.1-1.48v-7.45c0-1.56-.58-2.77-2.11-2.77-1.31,0-2.57.58-3.45,1.34v8.87c0,1.31.27,1.48,1.18,1.48h.6v1.04h-7.12v-1.04Z"/>
    <path class="cls-4" d="M282.18,158.04h.79c.9,0,1.18-.16,1.18-1.48v-8.96c0-1.34-.27-1.48-1.23-1.48h-.74v-1.04l5.34-.38v1.81c1.07-.99,2.55-1.97,4.63-1.97s3.31.88,3.86,2.3c1.34-1.29,2.88-2.3,5.07-2.3,3.31,0,4.3,2.41,4.3,4.98v7.04c0,1.31.27,1.48,1.18,1.48h.82v1.04h-7.07v-1.04h.6c.85,0,1.12-.16,1.12-1.48v-7.5c0-1.56-.66-2.71-2.16-2.71-1.31,0-2.52.66-3.42,1.4v8.82c0,1.31.27,1.48,1.18,1.48h.6v1.04h-6.85v-1.04h.6c.85,0,1.1-.16,1.1-1.48v-7.45c0-1.56-.58-2.77-2.11-2.77-1.31,0-2.57.58-3.45,1.34v8.87c0,1.31.27,1.48,1.18,1.48h.6v1.04h-7.12v-1.04Z"/>
    <path class="cls-4" d="M308.59,151.93c0-4.16,2.85-7.4,6.93-7.4s6.22,2.03,6.22,6.74h-9.53c.03,4.08,1.51,6.33,4.46,6.33,2.27,0,3.97-1.53,4.85-2.36h.25v1.45c-1.15,1.07-3.07,2.71-6.35,2.71-4.55,0-6.82-3.67-6.82-7.48ZM318.28,150.12c-.05-2.11-.44-4.55-2.71-4.55-2.44,0-3.1,2.6-3.29,4.55h6Z"/>
    <path class="cls-4" d="M323.32,158.04h.79c.9,0,1.18-.16,1.18-1.48v-8.96c0-1.34-.27-1.48-1.23-1.48h-.74v-1.04l5.34-.38v2.68c1.32-1.7,2.52-2.85,4.16-2.85,1.26,0,2.08.9,2.08,2.14,0,1.48-.82,2.11-1.67,2.11-1.18,0-1.62-.71-1.62-1.59,0-.3.05-.63.14-.9-.93.22-2.33,1.4-3.1,2.33v7.94c0,1.31.27,1.48,1.18,1.48h1.15v1.04h-7.67v-1.04Z"/>
    <path class="cls-4" d="M335.92,152.23c0-4.14,2.68-7.7,7.2-7.7,3.29,0,5.45,1.78,5.45,3.62,0,1.1-.82,1.89-1.89,1.89-1.18,0-1.78-.79-1.78-1.62,0-.71.38-1.48,1.21-1.84-.71-.52-1.18-.85-2.55-.85-2.38,0-3.97,2.49-3.97,5.64,0,4.14,1.51,6.22,4.22,6.22,2.46,0,3.86-1.62,4.57-2.33h.25v1.45c-1.32,1.4-3.21,2.68-6.11,2.68-3.89,0-6.6-3.04-6.6-7.18Z"/>
    <path class="cls-4" d="M349.97,158.04h.79c.9,0,1.18-.16,1.18-1.48v-8.96c0-1.34-.27-1.48-1.23-1.48h-.74v-1.04l5.37-.38v11.86c0,1.31.27,1.48,1.18,1.48h.74v1.04h-7.29v-1.04ZM351.34,140.32c0-1.15.9-2,2.11-2s2.11.85,2.11,2-.9,2-2.11,2-2.11-.88-2.11-2Z"/>
    <path class="cls-4" d="M358.6,155.76c0-3.31,2.88-4.25,8.74-5.34v-1.53c0-1.64-.96-2.96-2.99-2.96-1.56,0-2.27.3-2.96.71.77.27,1.21.85,1.21,1.53,0,.88-.74,1.56-1.75,1.56-1.1,0-1.64-.71-1.64-1.67,0-1.59,2.44-3.53,5.89-3.53,4.03,0,5.59,1.59,5.59,4.79v7.2c0,.79.49,1.12,1.07,1.12.52,0,1.1-.27,1.48-.49v1.01c-.74.66-2.08,1.23-3.18,1.23-1.29,0-2.52-.55-2.71-1.92-1.1,1.15-2.68,1.92-4.55,1.92-2.52,0-4.19-1.56-4.19-3.64ZM367.34,156.37v-4.88c-3.81.77-5.2,1.56-5.2,3.7,0,1.64.85,2.49,2.19,2.49.96,0,2.19-.52,3.01-1.31Z"/>
    <path class="cls-4" d="M373.58,158.04h.79c.9,0,1.18-.16,1.18-1.48v-15.45c0-1.34-.27-1.48-1.23-1.48h-.74v-1.04l5.34-.38v18.35c0,1.31.27,1.48,1.18,1.48h.77v1.04h-7.29v-1.04Z"/>
    <path class="cls-4" d="M274.9,175.43c-.38-1.01-.58-1.78-1.67-1.78h-.71v-1.04h7.97v1.04h-.74c-.9,0-1.23.22-1.23.66,0,.36.19.99.41,1.59l4.25,11.61,4.27-11.61c.22-.58.38-1.23.38-1.59,0-.44-.33-.66-1.23-.66h-.71v-1.04h5.72v1.04h-.71c-1.1,0-1.29.77-1.67,1.78l-6.19,16.52h-2l-6.14-16.52Z"/>
    <path class="cls-4" d="M290.34,184.8c0-4.16,2.85-7.4,6.93-7.4s6.22,2.03,6.22,6.74h-9.53c.03,4.08,1.51,6.33,4.46,6.33,2.27,0,3.97-1.53,4.85-2.36h.25v1.45c-1.15,1.07-3.07,2.71-6.35,2.71-4.55,0-6.82-3.67-6.82-7.48ZM300.04,182.99c-.05-2.11-.44-4.55-2.71-4.55-2.44,0-3.1,2.6-3.29,4.55h6Z"/>
    <path class="cls-4" d="M305,190.9h.79c.9,0,1.18-.16,1.18-1.48v-15.45c0-1.34-.27-1.48-1.23-1.48h-.74v-1.04l5.37-.38v8.3c1.18-1.04,2.68-1.97,4.79-1.97,3.26,0,4.46,2.3,4.46,5.01v7.01c0,1.31.27,1.48,1.18,1.48h.79v1.04h-7.15v-1.04h.63c.9,0,1.18-.16,1.18-1.48v-7.5c0-1.51-.63-2.71-2.22-2.71-1.42,0-2.74.58-3.67,1.34v8.87c0,1.31.27,1.48,1.18,1.48h.6v1.04h-7.15v-1.04Z"/>
    <path class="cls-4" d="M322.58,190.9h.79c.9,0,1.18-.16,1.18-1.48v-8.96c0-1.34-.27-1.48-1.23-1.48h-.74v-1.04l5.37-.38v11.86c0,1.31.27,1.48,1.18,1.48h.74v1.04h-7.29v-1.04ZM323.95,173.18c0-1.15.9-2,2.11-2s2.11.85,2.11,2-.9,2-2.11,2-2.11-.88-2.11-2Z"/>
    <path class="cls-4" d="M331.13,185.1c0-4.14,2.68-7.7,7.2-7.7,3.29,0,5.45,1.78,5.45,3.62,0,1.1-.82,1.89-1.89,1.89-1.18,0-1.78-.79-1.78-1.62,0-.71.38-1.48,1.21-1.84-.71-.52-1.18-.85-2.55-.85-2.38,0-3.97,2.49-3.97,5.64,0,4.14,1.51,6.22,4.22,6.22,2.47,0,3.86-1.62,4.57-2.33h.25v1.45c-1.32,1.4-3.21,2.68-6.11,2.68-3.89,0-6.6-3.04-6.6-7.18Z"/>
    <path class="cls-4" d="M344.99,190.9h.79c.9,0,1.18-.16,1.18-1.48v-15.45c0-1.34-.27-1.48-1.23-1.48h-.74v-1.04l5.34-.38v18.35c0,1.31.27,1.48,1.18,1.48h.77v1.04h-7.29v-1.04Z"/>
    <path class="cls-4" d="M353.4,184.8c0-4.16,2.85-7.4,6.93-7.4s6.22,2.03,6.22,6.74h-9.53c.03,4.08,1.51,6.33,4.46,6.33,2.27,0,3.97-1.53,4.85-2.36h.25v1.45c-1.15,1.07-3.07,2.71-6.35,2.71-4.55,0-6.82-3.67-6.82-7.48ZM363.09,182.99c-.05-2.11-.44-4.55-2.71-4.55-2.44,0-3.1,2.6-3.29,4.55h6Z"/>
    <path class="cls-4" d="M370.27,191.15l-.47.93h-.9v-5.12h1.1c.27,1.15.63,1.83,1.29,2.82.77.77,1.62,1.42,3.21,1.42,2.11,0,3.18-1.15,3.18-2.3,0-1.59-1.64-2.08-3.67-2.66-2.49-.74-4.9-1.59-4.9-4.55,0-2.38,2.44-4.3,5.56-4.3,1.4,0,2.66.41,3.78.9l.3-.66h.88v4.3h-1.12c-.3-1.12-.63-1.64-1.1-2.38-.44-.44-1.34-1.07-2.71-1.07-1.62,0-2.77.9-2.77,2.03,0,1.51,1.01,2.05,3.26,2.68,3.26.9,5.18,2,5.18,4.63,0,2.82-2.82,4.46-5.94,4.46-1.75,0-3.15-.6-4.14-1.15Z"/>
  </g>
</svg>