<svg width="10" height="10" viewBox="0 0 10 10" fill="none" xmlns="http://www.w3.org/2000/svg">
<path d="M8.96225 0H0.891337C0.39907 0 0 0.39907 0 0.891337V8.96222C0 9.45452 0.39907 9.85359 0.891337 9.85359H8.96222C9.45452 9.85359 9.85359 9.45452 9.85359 8.96222V0.891337C9.85359 0.39907 9.45452 0 8.96225 0ZM3.04912 8.50823C3.04912 8.6515 2.93299 8.76763 2.78973 8.76763H1.68556C1.54229 8.76763 1.42616 8.6515 1.42616 8.50823V3.8796C1.42616 3.73634 1.54229 3.62021 1.68556 3.62021H2.78973C2.93299 3.62021 3.04912 3.73634 3.04912 3.8796V8.50823ZM2.23764 3.18389C1.65832 3.18389 1.18867 2.71425 1.18867 2.13493C1.18867 1.5556 1.65832 1.08596 2.23764 1.08596C2.81696 1.08596 3.28661 1.5556 3.28661 2.13493C3.28661 2.71425 2.81699 3.18389 2.23764 3.18389ZM8.81948 8.52913C8.81948 8.66084 8.71268 8.76763 8.58098 8.76763H7.39612C7.26441 8.76763 7.15762 8.66084 7.15762 8.52913V6.35804C7.15762 6.03416 7.25263 4.93879 6.31122 4.93879C5.581 4.93879 5.43289 5.68854 5.40314 6.025V8.52913C5.40314 8.66084 5.29638 8.76763 5.16465 8.76763H4.01869C3.88698 8.76763 3.78019 8.66084 3.78019 8.52913V3.85871C3.78019 3.727 3.88698 3.62021 4.01869 3.62021H5.16465C5.29635 3.62021 5.40314 3.727 5.40314 3.85871V4.26253C5.67391 3.85618 6.07631 3.54254 6.93308 3.54254C8.83033 3.54254 8.81948 5.31505 8.81948 6.28896V8.52913Z" fill="#E00E0E"/>
</svg>
