<svg width="10" height="12" viewBox="0 0 10 12" fill="none" xmlns="http://www.w3.org/2000/svg">
<path d="M4.92679 0C2.20298 0 0 1.92725 0 4.30756C0 5.24752 0.351914 6.10632 0.936091 6.81636C0.943129 6.82989 0.950167 6.85017 0.957205 6.8637L4.24408 11.178C4.39892 11.3741 4.6523 11.4958 4.92679 11.4958C5.20129 11.4958 5.45466 11.3741 5.60951 11.178L8.89638 6.8637C8.89638 6.8637 8.91046 6.82989 8.91749 6.81636C9.50167 6.10632 9.85359 5.24752 9.85359 4.30756C9.85359 1.92725 7.6506 0 4.92679 0ZM4.92679 7.08009C3.49802 7.08009 2.33671 5.96432 2.33671 4.59158C2.33671 3.21884 3.49802 2.10306 4.92679 2.10306C6.35556 2.10306 7.51688 3.21884 7.51688 4.59158C7.51688 5.96432 6.35556 7.08009 4.92679 7.08009Z" fill="#E00E0E"/>
</svg>
