<svg width="48" height="36" viewBox="0 0 48 36" fill="none" xmlns="http://www.w3.org/2000/svg">
<path d="M32.923 12.6849H36.2579C36.7662 12.6849 37.728 13.428 37.728 13.9518V16.7758L37.8354 16.8841H39.3055V14.2415C39.3055 13.8459 39.7392 13.1986 40.0699 12.9862C40.7121 12.5741 41.3513 12.7116 41.9521 13.0897C43.763 14.2308 45.4723 16.0026 47.2996 17.1762C47.6467 17.4619 47.8744 17.9168 47.9143 18.3658C47.7016 22.0679 48.1873 26.0732 47.9143 29.7393C47.8725 30.304 47.6818 30.6189 47.3035 31.0052C45.6875 32.6541 43.4814 34.1076 41.7937 35.7239C40.9994 36.3081 39.7647 35.8765 39.4316 34.9668C39.4075 34.9007 39.3055 34.4789 39.3055 34.4425V32.2342H37.7275V34.7321C37.7275 35.2103 36.7619 36.0233 36.2574 35.9995L18.4163 35.982L17.766 35.6977C15.6547 33.3583 13.7807 30.7914 11.7662 28.3601L7.37173 28.3072C6.82249 28.2265 6.09947 27.4616 6.09947 26.9125V22.9664H3.23049V27.6365C3.23049 27.8266 3.03409 28.3038 2.90989 28.4709C2.05642 29.6173 0.333591 29.2052 0.0202175 27.8363L0 10.5462C0.0933862 9.40321 0.97189 8.78604 2.08675 9.02464C2.6384 9.14273 3.23049 9.91541 3.23049 10.4767V15.1468H6.09947V11.2732C6.09947 10.7843 6.85763 9.86147 7.3544 9.86147H10.8328V6.42231C10.8328 6.0039 11.6593 5.083 12.0877 5.083H18.5425L18.6498 4.97463V3.34568H17.0362C16.7773 3.34568 16.2786 2.97635 16.1033 2.76738C15.2624 1.76435 15.8208 0.457114 16.9963 0.119855C20.4545 0.259813 24.2303 -0.17561 27.6539 0.0848659C29.0224 0.188862 29.8229 1.68952 28.8948 2.79217C28.7466 2.96857 28.1391 3.34616 27.9374 3.34616H26.4312L26.3238 3.45453V4.97511L26.4312 5.08348H31.7383C31.7826 5.08348 32.3809 5.43872 32.458 5.51502C32.5653 5.62144 32.9215 6.23376 32.9215 6.35039V12.6859L32.923 12.6849Z" fill="#E00E0E"/>
</svg>
