<svg width="10" height="10" viewBox="0 0 10 10" fill="none" xmlns="http://www.w3.org/2000/svg">
<path d="M4.74393 0.00821519C5.31136 3.12159e-08 5.87464 0.00427188 6.43757 0C6.45629 0.667399 6.74191 1.26809 7.19635 1.71302L7.19565 1.71237C7.68475 2.13003 8.32117 2.4008 9.02275 2.4468L9.03245 2.44746V4.10232C8.36969 4.08655 7.74645 3.94163 7.18456 3.69255L7.21298 3.70372C6.94122 3.57984 6.71141 3.45267 6.49303 3.31071L6.51105 3.32188C6.5069 4.52096 6.51521 5.72005 6.50239 6.91486C6.46669 7.52377 6.25316 8.07911 5.91069 8.54278L5.91762 8.53259C5.34499 9.31007 4.4174 9.8204 3.3626 9.85063H3.35775C3.31511 9.8526 3.26485 9.85359 3.21424 9.85359C2.61457 9.85359 2.05407 9.6952 1.57641 9.42015L1.59027 9.42771C0.720922 8.93184 0.121249 8.08338 0.0103268 7.09658L0.00894025 7.08311C0.000274464 6.87773 -0.00388514 6.67235 0.00478065 6.47124C0.17463 4.90083 1.56254 3.68598 3.2496 3.68598C3.43921 3.68598 3.625 3.70142 3.8056 3.73067L3.78618 3.72804C3.79485 4.33563 3.76885 4.94355 3.76885 5.55114C3.62223 5.50087 3.45307 5.47162 3.27664 5.47162C2.62913 5.47162 2.07833 5.86398 1.87451 6.41176L1.87139 6.42162C1.82529 6.56194 1.7986 6.72328 1.7986 6.89021C1.7986 6.95791 1.80311 7.02494 1.81142 7.09066L1.81073 7.08278C1.92581 7.75511 2.5338 8.26247 3.26693 8.26247C3.28807 8.26247 3.30887 8.26215 3.32967 8.26116H3.32655C3.83367 8.2467 4.27389 7.98809 4.52278 7.60592L4.52624 7.6C4.61879 7.47776 4.68223 7.32989 4.70337 7.1692L4.70372 7.1646C4.74705 6.42951 4.72972 5.69869 4.73388 4.9636C4.73803 3.30874 4.72972 1.65782 4.74254 0.00722936L4.74393 0.00821519Z" fill="#E00E0E"/>
</svg>
