<svg width="48" height="48" viewBox="0 0 48 48" fill="none" xmlns="http://www.w3.org/2000/svg">
<path d="M7.99771 10.6082V21.5997H18.8557C19.5808 20.4815 20.3639 19.4951 21.6117 18.935V10.6754C16.9207 8.48684 17.5422 1.42424 22.6286 0.186522C29.2109 -1.41494 32.4111 7.75428 26.4076 10.6754L26.5039 18.9599C26.9844 19.2677 27.5611 19.5958 27.9677 19.9962C28.2974 20.3213 29.001 21.5463 29.2659 21.5976L37.259 21.589C38.8196 21.328 39.8886 20.1325 40.0256 18.5555V10.6749C34.0272 7.7497 37.1704 -1.32235 43.7282 0.163121C48.8451 1.32199 49.5559 8.48481 44.8216 10.6754C44.6917 13.3497 45.0076 16.2026 44.8298 18.8561C44.5612 22.8638 41.3993 26.11 37.3737 26.4C34.7222 26.5907 31.8573 26.2336 29.1829 26.4152C28.7218 26.8914 28.4431 27.5304 27.9672 27.9994C27.5362 28.4242 26.9375 28.7274 26.4606 29.0932L26.4071 37.3202C31.1745 39.5444 30.4251 46.7413 25.2327 47.8513C18.7085 49.2462 15.6815 40.1869 21.6117 37.3202L21.5913 29.0097C20.3318 28.5361 19.5747 27.4668 18.8552 26.3959H7.9972V37.3874C12.4263 39.3231 12.196 45.8749 7.64921 47.5817C0.914587 50.11 -3.19864 40.4799 3.17729 37.3716L3.19767 10.6754C-2.01914 8.2452 -0.458016 0.230273 5.34065 0.0120305C11.4358 -0.217403 13.4947 8.08749 7.99771 10.6082Z" fill="#E00E0E"/>
</svg>
