<svg width="192" height="64" viewBox="0 0 192 64" fill="none" xmlns="http://www.w3.org/2000/svg">
<path d="M88.0166 29.8394H83.2385V32.3599H88.1321C88.793 32.3599 88.9921 31.8821 88.9921 31.0977C88.9921 30.3133 88.8249 29.8354 88.0166 29.8354" fill="white"/>
<path d="M75.0003 29.8433H71.2773C69.7404 29.8433 69.2665 31.1453 69.2665 33.3512C69.2665 35.5571 69.9793 36.8711 71.2773 36.8711H75.0003C76.2983 36.8711 77.011 35.5571 77.011 33.3512C77.011 31.1453 76.5332 29.8433 75.0003 29.8433Z" fill="white"/>
<path d="M131.78 29.8472H128.483V36.8471H131.78C133.078 36.8471 133.791 35.6446 133.791 33.3511C133.791 31.0576 133.313 29.8472 131.78 29.8472Z" fill="white"/>
<path d="M192 16.799C192 16.7433 191.996 16.6875 191.988 16.6278C191.988 16.6278 191.988 16.588 191.98 16.572C191.96 16.4884 191.924 16.4048 191.873 16.3212C191.817 16.2336 191.745 16.15 191.65 16.0703C191.466 15.919 191.196 15.7916 190.817 15.6961C190.754 15.6761 190.698 15.6523 190.626 15.6363C138.071 3.25707 117.673 0.346412 104.891 0.0836168C101.929 -0.0278722 90.0752 -0.0278722 87.1088 0.0836168C74.3313 0.342431 53.9328 3.25707 1.3737 15.6363C1.30203 15.6523 1.25027 15.6762 1.18258 15.6921C0.804314 15.7876 0.53355 15.9151 0.35039 16.0664C0.254828 16.146 0.179176 16.2296 0.127413 16.3172C0.0796319 16.4008 0.0437983 16.4805 0.0238895 16.5641C0.0238895 16.5641 0.0199061 16.6039 0.0159243 16.6198C0.00796083 16.6796 0 16.7353 0 16.791V16.8269C0 16.8786 0.0199056 16.9264 0.0278691 16.9782C0.0398143 17.0379 0.0438007 17.1016 0.0637095 17.1614C0.163253 17.4879 0.354374 17.7586 0.434009 17.8661C0.453918 17.89 0.465861 17.9139 0.481788 17.9298C0.573369 18.0373 0.676894 18.1488 0.78042 18.2643C1.89929 18.3638 41.4261 21.8917 41.4261 21.8917C42.7958 21.9793 44.4403 22.4531 45.5711 23.2614C46.1286 23.6795 46.6741 24.1334 47.0922 24.6948C49.7958 28.3222 54.4265 40.6656 55.0995 42.5171C53.7337 40.0086 48.3464 29.7755 48.3464 29.7755C46.8453 27.0759 45.0057 25.8694 41.9079 25.4235L4.55512 22.0748C9.07043 26.411 14.9714 31.643 14.9714 31.643C15.6005 32.3477 16.4406 32.8136 17.3564 32.9649C17.3564 32.9649 35.3579 38.5871 41.9119 42.4733L54.0483 50.1183L54.9521 50.6877C64.0265 58.699 79.0139 63.9549 95.996 64.0027C112.978 63.9509 127.962 58.699 137.04 50.6877L137.944 50.1183L150.084 42.4733C156.634 38.5871 174.636 32.9649 174.636 32.9649C175.551 32.8096 176.392 32.3477 177.021 31.643C177.021 31.643 182.922 26.411 187.437 22.0748L150.088 25.4235C146.99 25.8694 145.151 27.0759 143.65 29.7755C143.65 29.7755 138.258 40.0086 136.893 42.5171C137.565 40.6616 142.196 28.3222 144.9 24.6948C145.318 24.1334 145.863 23.6795 146.421 23.2614C147.556 22.4531 149.196 21.9793 150.57 21.8917C150.57 21.8917 190.101 18.3638 191.22 18.2643C191.323 18.1488 191.427 18.0373 191.518 17.9298C191.534 17.9139 191.546 17.89 191.566 17.8661C191.646 17.7546 191.837 17.4879 191.936 17.1614C191.956 17.1016 191.96 17.0379 191.972 16.9782C191.98 16.9304 191.996 16.8826 192 16.8309V16.795V16.799ZM60.5624 18.8775C63.8991 11.2405 77.2022 5.78548 92.9579 5.12053C93.9613 5.07673 98.0347 5.07673 99.0381 5.12053C114.798 5.78548 128.097 11.2405 131.438 18.8775C132.238 20.7131 130.892 22.2938 126.823 22.2938H65.1773C61.1039 22.2938 59.7581 20.7091 60.5624 18.8775ZM116.004 39.0928H114.213C113.87 39.0928 113.798 38.9654 113.798 38.6548V27.9519C113.798 27.6732 113.894 27.5975 114.169 27.5975H115.395C115.913 27.5975 116.339 27.8125 116.653 28.2386L121.814 35.1628V27.936C121.814 27.6811 121.861 27.6015 122.196 27.6015H123.976C124.254 27.6015 124.338 27.6294 124.338 27.936V38.8937C124.338 39.065 124.27 39.0928 124.091 39.0928H122.817C122.789 39.0928 122.765 39.0928 122.741 39.0928C121.945 39.0928 121.507 38.5354 121.268 38.2328L116.327 31.8301V38.7584C116.355 38.9734 116.291 39.0928 116.008 39.0928M106.842 30.4684L102.817 38.9256C102.761 39.045 102.642 39.0928 102.506 39.0928H95.5779C93.2685 39.0928 92.7827 37.6236 92.7827 36.3932V27.5975H95.3072V36.5087C95.3072 36.7197 95.3072 36.8471 95.9801 36.8471H101.057L105.13 28.1032C105.305 27.6931 105.405 27.5975 105.863 27.5975H107.806C108.32 27.5975 108.427 27.709 108.59 28.0833L113.623 39.0928H111.159C111.023 39.0928 110.904 39.0411 110.844 38.9256L109.717 36.5445H104.967L106.078 34.2311H108.626L106.854 30.4723L106.842 30.4684ZM92.1297 39.0928H89.2191L86.2407 34.6054H83.5371C83.3221 34.6054 83.2345 34.7049 83.2345 34.9438V38.8579C83.2345 38.9893 83.135 39.0888 83.0115 39.0888H80.941C80.8176 39.0888 80.7141 38.9853 80.7141 38.8579V28.0036C80.7141 27.713 80.8455 27.5975 81.0684 27.5975H86.8579C88.4347 27.6095 89.5217 27.6931 90.1229 28.0116C90.9472 28.4496 91.5404 29.6362 91.5404 31.1014C91.5404 32.6941 90.9949 33.6816 90.1548 34.1913C89.8323 34.3864 89.3903 34.4421 89.0678 34.4939L92.1218 39.0928H92.1297ZM79.5673 33.2158C79.5673 37.6713 77.7676 39.0928 75.8284 39.0928H70.4571C68.518 39.0928 66.7142 37.6713 66.7142 33.2158C66.7142 28.7602 69.0794 27.6095 70.9508 27.6095H75.3307C77.2021 27.6095 79.5673 28.7602 79.5673 33.2158ZM58.5516 34.912V38.8619C58.5516 38.9893 58.4441 39.0928 58.3127 39.0928H56.2701C56.1387 39.0928 56.0312 38.9893 56.0312 38.8619V27.8922C56.0312 27.7289 56.1666 27.5975 56.3338 27.5975H65.6511C65.8183 27.5975 65.9537 27.7289 65.9537 27.8922V29.5526C65.9537 29.7158 65.8183 29.8472 65.6511 29.8472H58.5516V32.4075H65.1932C65.5078 32.4075 65.5874 32.4075 65.5874 32.73V34.3864C65.5874 34.6094 65.456 34.6492 65.2927 34.6492H58.8105C58.6432 34.6492 58.5516 34.7049 58.5516 34.916M130.816 48.2946C126.349 55.1313 113.846 60.7416 96.0956 60.7416H95.9044C78.1538 60.7416 65.6511 55.1353 61.1836 48.2946C59.563 45.81 61.0522 44.3965 63.2581 44.3965H128.742C130.948 44.3965 132.441 45.81 130.816 48.2946ZM132.604 39.0928H126.217C126.098 39.0928 125.955 39.057 125.955 38.8061V27.932C125.955 27.7289 126.034 27.5975 126.337 27.5975H132.107C133.978 27.5975 136.343 28.7602 136.343 33.2158C136.343 37.6713 134.539 39.0928 132.6 39.0928" fill="white"/>
</svg>
